<?xml version="1.0" encoding="utf-8"?>
<!-- Generator: Adobe Illustrator 24.0.0, SVG Export Plug-In . SVG Version: 6.00 Build 0)  -->
<svg version="1.1" xmlns="http://www.w3.org/2000/svg" xmlns:xlink="http://www.w3.org/1999/xlink" x="0px" y="0px"
	 viewBox="0 0 564.4 353.1" style="enable-background:new 0 0 564.4 353.1;" xml:space="preserve">
<style type="text/css">
	.st0{fill:#F9F0E3;}
	.st1{fill:#C5E7ED;}
	.st2{fill:#ADDEE6;}
	.st3{fill:#96D4DF;}
	.st4{fill:#E9E9E9;}
	.st5{fill:#F3F3F3;}
	.st6{fill:#CCCCCC;}
	.st7{fill:#B3B3B3;}
	.st8{fill:#D7D7D7;}
	.st9{fill:#8AD0DB;}
	.st10{fill:#5CBDCD;}
	.st11{fill:#50B8C9;}
	.st12{fill:#4AABBB;}
	.st13{fill:#459EAC;}
	.st14{fill:#058570;}
	.st15{fill:#EC9D48;}
	.st16{fill:#C75D8E;}
	.st17{fill:#C7D5D7;}
	.st18{fill:#D9C3A4;}
	.st19{opacity:0.5;fill:#FFFFFF;}
	.st20{fill:#FDCB35;}
	.st21{fill:none;}
	.st22{fill:#7AC943;}
	.st23{fill:#122E44;}
	.st24{fill:#DF552E;}
	.st25{fill:#FFFFFF;}
	.st26{fill-rule:evenodd;clip-rule:evenodd;fill:#FDCB35;}
	.st27{fill-rule:evenodd;clip-rule:evenodd;fill:#FFE39E;}
	.st28{fill-rule:evenodd;clip-rule:evenodd;fill:#122E44;}
	.st29{fill-rule:evenodd;clip-rule:evenodd;fill:#DF552E;}
	.st30{fill:#6D5165;}
	.st31{fill:#E09899;}
	.st32{fill:#E5816A;}
	.st33{fill:#3FA9F5;}
	.st34{fill:#B194C7;}
	.st35{fill:#8D62AD;}
	.st36{fill:#E07EAF;}
	.st37{fill:#78D3DD;}
	.st38{fill:#E8ED8C;}
	.st39{fill:#CFDD40;}
	.st40{fill:#876880;}
	.st41{fill:#376936;}
	.st42{fill:#45424B;}
	.st43{fill:#54A941;}
	.st44{fill:#A49AA1;}
	.st45{fill:#4C5655;}
	.st46{opacity:0.5;fill:#FDCB35;}
</style>
<g id="Hintergrund">
	<rect x="0.1" y="0" class="st0" width="564.4" height="353.1"/>
</g>
<g id="Wasser">
	<path class="st1" d="M359.6,235.4c-5.9,0-5.9-6.4-11.8-6.4c-5.9,0-5.9,6.4-11.8,6.4c-5.9,0-5.9-6.4-11.8-6.4
		c-5.9,0-5.9,6.4-11.8,6.4c-5.9,0-5.9-6.4-11.8-6.4c-5.9,0-5.9,6.4-11.8,6.4c-5.9,0-5.9-6.4-11.8-6.4c-5.9,0-5.9,6.4-11.8,6.4
		c-5.9,0-5.9-6.4-11.8-6.4c-5.9,0-5.9,6.4-11.8,6.4c-5.9,0-5.9-6.4-11.8-6.4c-5.9,0-5.9,6.4-11.8,6.4c-5.9,0-5.9-6.4-11.8-6.4
		c-5.9,0-5.9,6.4-11.8,6.4c-5.9,0-5.9-6.4-11.8-6.4c-5.9,0-5.9,6.4-11.8,6.4c-5.9,0-5.9-6.4-11.8-6.4c-5.9,0-5.9,6.4-11.8,6.4
		c-5.9,0-5.9-6.4-11.8-6.4c-5.9,0-5.9,6.4-11.8,6.4c-5.9,0-5.9-6.4-11.8-6.4c-5.9,0-5.9,6.4-11.8,6.4c-5.9,0-5.9-6.4-11.8-6.4
		c-5.9,0-5.9,6.4-11.8,6.4c-5.9,0-5.9-6.4-11.8-6.4c-5.9,0-5.9,6.4-11.8,6.4c-5.9,0-5.9-6.4-11.8-6.4c-5.9,0-5.9,6.4-11.8,6.4
		c-8.3,0-6.9-14.8-6.9,11.4c0,13.2,10.7,23.8,23.8,23.8H93c8.6,0,15.5,7,15.5,15.5s7,15.5,15.5,15.5h64.4c8,0,14.5,6.5,14.5,14.5
		c0,8,6.5,14.5,14.5,14.5h86.4c10.7,0,19.3-8.7,19.3-19.3c0-10.7,8.7-19.3,19.3-19.3h75.3c9.3,0,16.8-7.5,16.8-16.8
		c0-9.3,7.5-16.8,16.8-16.8h61.6c15.3,0,27.9-11.7,29.3-26.7c-1.4-1.5-2.7-2.8-5.7-2.8c-5.9,0-5.9,6.4-11.8,6.4
		c-5.9,0-5.9-6.4-11.8-6.4c-5.9,0-5.9,6.4-11.8,6.4c-5.9,0-5.9-6.4-11.8-6.4c-5.9,0-5.9,6.4-11.8,6.4c-5.9,0-5.9-6.4-11.8-6.4
		c-5.9,0-5.9,6.4-11.8,6.4c-5.9,0-5.9-6.4-11.8-6.4c-5.9,0-5.9,6.4-11.8,6.4c-5.9,0-5.9-6.4-11.8-6.4c-5.9,0-5.9,6.4-11.8,6.4
		c-5.9,0-5.9-6.4-11.8-6.4c-5.9,0-5.9,6.4-11.8,6.4c-5.9,0-5.9-6.4-11.8-6.4C365.5,228.9,365.5,235.4,359.6,235.4z"/>
	<path class="st2" d="M359.6,244.6c-5.9,0-5.9-6.4-11.8-6.4c-5.9,0-5.9,6.4-11.8,6.4c-5.9,0-5.9-6.4-11.8-6.4
		c-5.9,0-5.9,6.4-11.8,6.4c-5.9,0-5.9-6.4-11.8-6.4c-5.9,0-5.9,6.4-11.8,6.4c-5.9,0-5.9-6.4-11.8-6.4c-5.9,0-5.9,6.4-11.8,6.4
		c-5.9,0-5.9-6.4-11.8-6.4c-5.9,0-5.9,6.4-11.8,6.4c-5.9,0-5.9-6.4-11.8-6.4c-5.9,0-5.9,6.4-11.8,6.4c-5.9,0-5.9-6.4-11.8-6.4
		c-5.9,0-5.9,6.4-11.8,6.4c-5.9,0-5.9-6.4-11.8-6.4c-5.9,0-5.9,6.4-11.8,6.4c-5.9,0-5.9-6.4-11.8-6.4c-5.9,0-5.9,6.4-11.8,6.4
		c-5.9,0-5.9-6.4-11.8-6.4c-5.9,0-5.9,6.4-11.8,6.4c-5.9,0-5.9-6.4-11.8-6.4c-5.9,0-5.9,6.4-11.8,6.4c-5.9,0-5.9-6.4-11.8-6.4
		c-5.9,0-5.9,6.4-11.8,6.4c-5.9,0-5.9-6.4-11.8-6.4c-5.9,0-5.9,6.4-11.8,6.4c-5.9,0-5.9-6.4-11.8-6.4c-5.9,0-5.9,6.4-11.8,6.4
		c-3.3,0-5-2.4-6.9-4.2v6.5c0,13.2,10.7,23.8,23.8,23.8H93c8.6,0,15.5,7,15.5,15.5s7,15.5,15.5,15.5h64.4c8,0,14.5,6.5,14.5,14.5
		c0,8,6.5,14.5,14.5,14.5h86.4c10.7,0,19.3-8.7,19.3-19.3c0-10.7,8.7-19.3,19.3-19.3h75.3c9.3,0,16.8-7.5,16.8-16.8
		c0-9.3,7.5-16.8,16.8-16.8h61.6c12.6,0,23.4-7.9,27.6-19.1c-1-0.7-2.2-1.2-4-1.2c-5.9,0-5.9,6.4-11.8,6.4c-5.9,0-5.9-6.4-11.8-6.4
		c-5.9,0-5.9,6.4-11.8,6.4c-5.9,0-5.9-6.4-11.8-6.4c-5.9,0-5.9,6.4-11.8,6.4c-5.9,0-5.9-6.4-11.8-6.4c-5.9,0-5.9,6.4-11.8,6.4
		c-5.9,0-5.9-6.4-11.8-6.4c-5.9,0-5.9,6.4-11.8,6.4c-5.9,0-5.9-6.4-11.8-6.4c-5.9,0-5.9,6.4-11.8,6.4c-5.9,0-5.9-6.4-11.8-6.4
		c-5.9,0-5.9,6.4-11.8,6.4c-5.9,0-5.9-6.4-11.8-6.4C365.5,238.1,365.5,244.6,359.6,244.6z"/>
	<path class="st3" d="M359.6,255.2c-5.9,0-5.9-6.4-11.8-6.4c-5.9,0-5.9,6.4-11.8,6.4c-5.9,0-5.9-6.4-11.8-6.4
		c-5.9,0-5.9,6.4-11.8,6.4c-5.9,0-5.9-6.4-11.8-6.4c-5.9,0-5.9,6.4-11.8,6.4c-5.9,0-5.9-6.4-11.8-6.4c-5.9,0-5.9,6.4-11.8,6.4
		c-5.9,0-5.9-6.4-11.8-6.4c-5.9,0-5.9,6.4-11.8,6.4c-5.9,0-5.9-6.4-11.8-6.4c-5.9,0-5.9,6.4-11.8,6.4c-5.9,0-5.9-6.4-11.8-6.4
		c-5.9,0-5.9,6.4-11.8,6.4c-5.9,0-5.9-6.4-11.8-6.4c-5.9,0-5.9,6.4-11.8,6.4c-5.9,0-5.9-6.4-11.8-6.4c-5.9,0-5.9,6.4-11.8,6.4
		c-5.9,0-5.9-6.4-11.8-6.4c-5.9,0-5.9,6.4-11.8,6.4c-5.9,0-5.9-6.4-11.8-6.4c-5.9,0-5.9,6.4-11.8,6.4c-5.9,0-5.9-6.4-11.8-6.4
		c-5.9,0-5.9,6.4-11.8,6.4c-5.9,0-5.9-6.4-11.8-6.4c-5.9,0-5.9,6.4-11.8,6.4c-5.9,0-5.9-6.4-11.8-6.4c-5.9,0-5.9,6.4-11.8,6.4
		c-3,0-4.7-2-6.4-3.8c2.1,11,11.8,19.2,23.4,19.2H93c8.6,0,15.5,7,15.5,15.5s7,15.5,15.5,15.5h64.4c8,0,14.5,6.5,14.5,14.5
		c0,8,6.5,14.5,14.5,14.5h86.4c10.7,0,19.3-8.7,19.3-19.3c0-10.7,8.7-19.3,19.3-19.3h75.3c9.3,0,16.8-7.5,16.8-16.8
		c0-9.3,7.5-16.8,16.8-16.8c66.9,0,67.2,1.2,76.1-3.8c-7.2,3.3-8.3-5.9-14.5-5.9c-5.9,0-5.9,6.4-11.8,6.4c-5.9,0-5.9-6.4-11.8-6.4
		c-5.9,0-5.9,6.4-11.8,6.4c-5.9,0-5.9-6.4-11.8-6.4c-5.9,0-5.9,6.4-11.8,6.4c-5.9,0-5.9-6.4-11.8-6.4c-5.9,0-5.9,6.4-11.8,6.4
		c-5.9,0-5.9-6.4-11.8-6.4c-5.9,0-5.9,6.4-11.8,6.4c-5.9,0-5.9-6.4-11.8-6.4c-5.9,0-5.9,6.4-11.8,6.4c-5.9,0-5.9-6.4-11.8-6.4
		C365.5,248.7,365.5,255.2,359.6,255.2z"/>
	<g id="Schiff">
		<g>
			<polygon class="st4" points="233.4,244 287.8,228 236.3,266.5 			"/>
			<polygon class="st5" points="233.4,244 176.8,242 236.3,266.5 			"/>
			<polygon class="st6" points="221.1,266.7 219.6,254.7 232.3,234.8 236.1,264.6 			"/>
			<polygon class="st7" points="251.1,262.9 249.6,250.9 232.3,234.8 236.1,264.6 			"/>
			<polyline class="st6" points="234.9,256 287.7,228 264.9,264.4 234.9,256.1 			"/>
			<polygon class="st8" points="235,256 176.8,242 208,271.6 			"/>
		</g>
	</g>
	<path class="st9" d="M359.6,265.3c-5.9,0-5.9-6.4-11.8-6.4c-5.9,0-5.9,6.4-11.8,6.4c-5.9,0-5.9-6.4-11.8-6.4
		c-5.9,0-5.9,6.4-11.8,6.4c-5.9,0-5.9-6.4-11.8-6.4c-5.9,0-5.9,6.4-11.8,6.4c-5.9,0-5.9-6.4-11.8-6.4c-5.9,0-5.9,6.4-11.8,6.4
		c-5.9,0-5.9-6.4-11.8-6.4c-5.9,0-5.9,6.4-11.8,6.4c-5.9,0-5.9-6.4-11.8-6.4c-5.9,0-5.9,6.4-11.8,6.4c-5.9,0-5.9-6.4-11.8-6.4
		c-5.9,0-5.9,6.4-11.8,6.4c-5.9,0-5.9-6.4-11.8-6.4c-5.9,0-5.9,6.4-11.8,6.4c-5.9,0-5.9-6.4-11.8-6.4c-5.9,0-5.9,6.4-11.8,6.4
		c-5.9,0-5.9-6.4-11.8-6.4c-5.9,0-5.9,6.4-11.8,6.4c-5.9,0-5.9-6.4-11.8-6.4c-5.9,0-5.9,6.4-11.8,6.4c-5.9,0-5.9-6.4-11.8-6.4
		c-5.9,0-5.9,6.4-11.8,6.4c-5.9,0-5.9-6.4-11.8-6.4c-5.9,0-5.9,6.4-11.8,6.4c-5.9,0-5.9-6.4-11.8-6.4c-5.3,0-5.8,5.1-10.1,6.2
		c8.6,7.2,12.3,5.5,62.2,5.5c8.6,0,15.5,7,15.5,15.5s7,15.5,15.5,15.5h64.4c8,0,14.5,6.5,14.5,14.5c0,8,6.5,14.5,14.5,14.5h86.4
		c10.7,0,19.3-8.7,19.3-19.3c0-10.7,8.7-19.3,19.3-19.3h75.3c9.3,0,16.8-7.5,16.8-16.8c0-7.1,4.4-13.2,10.6-15.6
		c-0.8-0.4-1.8-0.7-3-0.7c-5.9,0-5.9,6.4-11.8,6.4c-5.9,0-5.9-6.4-11.8-6.4c-5.9,0-5.9,6.4-11.8,6.4c-5.9,0-5.9-6.4-11.8-6.4
		c-5.9,0-5.9,6.4-11.8,6.4c-5.9,0-5.9-6.4-11.8-6.4C365.5,258.9,365.5,265.3,359.6,265.3z"/>
	<path class="st10" d="M359.6,275.9c-5.9,0-5.9-6.4-11.8-6.4c-5.9,0-5.9,6.4-11.8,6.4c-5.9,0-5.9-6.4-11.8-6.4
		c-5.9,0-5.9,6.4-11.8,6.4c-5.9,0-5.9-6.4-11.8-6.4c-5.9,0-5.9,6.4-11.8,6.4c-5.9,0-5.9-6.4-11.8-6.4c-5.9,0-5.9,6.4-11.8,6.4
		c-5.9,0-5.9-6.4-11.8-6.4c-5.9,0-5.9,6.4-11.8,6.4c-5.9,0-5.9-6.4-11.8-6.4c-5.9,0-5.9,6.4-11.8,6.4c-5.9,0-5.9-6.4-11.8-6.4
		c-5.9,0-5.9,6.4-11.8,6.4c-5.9,0-5.9-6.4-11.8-6.4c-5.9,0-5.9,6.4-11.8,6.4c-5.9,0-5.9-6.4-11.8-6.4c-5.9,0-5.9,6.4-11.8,6.4
		c-5.9,0-5.9-6.4-11.8-6.4c-5.9,0-5.9,6.4-11.8,6.4c-5.9,0-5.9-6.4-11.8-6.4c-4.4,0-5.5,3.5-8.2,5.3c3,2.8,4.9,6.9,4.9,11.4
		c0,8.6,7,15.5,15.5,15.5h64.4c8,0,14.5,6.5,14.5,14.5c0,8,6.5,14.5,14.5,14.5h86.4c10.7,0,19.3-8.7,19.3-19.3
		c0-10.7,8.7-19.3,19.3-19.3h75.3c9.3,0,16.8-7.5,16.8-16.8c0-2.2-0.1,0.7-4.2,0.7c-5.9,0-5.9-6.4-11.8-6.4c-5.9,0-5.9,6.4-11.8,6.4
		c-5.9,0-5.9-6.4-11.8-6.4c-5.9,0-5.9,6.4-11.8,6.4c-5.9,0-5.9-6.4-11.8-6.4C365.5,269.5,365.5,275.9,359.6,275.9z"/>
	<path class="st11" d="M359.6,286.1c-5.9,0-5.9-6.4-11.8-6.4c-5.9,0-5.9,6.4-11.8,6.4c-5.9,0-5.9-6.4-11.8-6.4
		c-5.9,0-5.9,6.4-11.8,6.4c-5.9,0-5.9-6.4-11.8-6.4c-5.9,0-5.9,6.4-11.8,6.4c-5.9,0-5.9-6.4-11.8-6.4c-5.9,0-5.9,6.4-11.8,6.4
		c-5.9,0-5.9-6.4-11.8-6.4c-5.9,0-5.9,6.4-11.8,6.4c-5.9,0-5.9-6.4-11.8-6.4c-5.9,0-5.9,6.4-11.8,6.4c-5.9,0-5.9-6.4-11.8-6.4
		c-5.9,0-5.9,6.4-11.8,6.4c-5.9,0-5.9-6.4-11.8-6.4c-5.9,0-5.9,6.4-11.8,6.4c-5.9,0-5.9-6.4-11.8-6.4c-5.9,0-5.9,6.4-11.8,6.4
		c-5.9,0-5.9-6.4-11.8-6.4c-5.9,0-5.9,6.4-11.8,6.4c-5.9,0-5.9-6.4-11.8-6.4c-1.8,0-3.1,0.6-4.1,1.4c0.6,1.6,0.9,3.3,0.9,5.1
		c0,8.6,7,15.5,15.5,15.5h64.4c8,0,14.5,6.5,14.5,14.5c0,8,6.5,14.5,14.5,14.5h86.4c10.7,0,19.3-8.7,19.3-19.3
		c0-10.7,8.7-19.3,19.3-19.3c81.7,0,81.5,2,88.2-6c-6.2,0.2-6.1-6.4-12.1-6.4c-5.9,0-5.9,6.4-11.8,6.4c-5.9,0-5.9-6.4-11.8-6.4
		c-5.9,0-5.9,6.4-11.8,6.4c-5.9,0-5.9-6.4-11.8-6.4C365.5,279.6,365.5,286.1,359.6,286.1z"/>
	<path class="st12" d="M324.2,290.2c-5.9,0-5.9,6.4-11.8,6.4c-5.9,0-5.9-6.4-11.8-6.4c-5.9,0-5.9,6.4-11.8,6.4
		c-5.9,0-5.9-6.4-11.8-6.4c-5.9,0-5.9,6.4-11.8,6.4c-5.9,0-5.9-6.4-11.8-6.4c-5.9,0-5.9,6.4-11.8,6.4c-5.9,0-5.9-6.4-11.8-6.4
		c-5.9,0-5.9,6.4-11.8,6.4c-5.9,0-5.9-6.4-11.8-6.4c-5.9,0-5.9,6.4-11.8,6.4c-5.9,0-5.9-6.4-11.8-6.4c-5.9,0-5.9,6.4-11.8,6.4
		c-5.9,0-5.9-6.4-11.8-6.4c-5.9,0-5.9,6.4-11.8,6.4c-5.9,0-5.9-6.4-11.8-6.4c-5.9,0-5.9,6.4-11.8,6.4c-6.3,0-7.2-9-14.4-5.9
		c1.9,6.4,7.9,11,14.9,11h64.4c8,0,14.5,6.5,14.5,14.5c0,8,6.5,14.5,14.5,14.5h86.4c10.7,0,19.3-8.7,19.3-19.3
		c0-6.8,3.5-12.7,8.7-16.2C329.6,293.3,328.3,290.2,324.2,290.2z"/>
	<path class="st11" d="M312.4,306.8c-5.9,0-5.9-6.4-11.8-6.4c-5.9,0-5.9,6.4-11.8,6.4c-5.9,0-5.9-6.4-11.8-6.4
		c-5.9,0-5.9,6.4-11.8,6.4c-5.9,0-5.9-6.4-11.8-6.4c-5.9,0-5.9,6.4-11.8,6.4c-5.9,0-5.9-6.4-11.8-6.4c-5.9,0-5.9,6.4-11.8,6.4
		c-5.9,0-5.9-6.4-11.8-6.4c-4.2,0-5.4,3.3-7.9,5.2c2.9,2.7,4.7,6.5,4.7,10.7c0,8,6.5,14.5,14.5,14.5h86.4c10.7,0,19.3-8.7,19.3-19.3
		c0-10,6.2-11.1,1-11.1C318.3,300.3,318.3,306.8,312.4,306.8z"/>
	<path class="st13" d="M312.4,317.4c-5.9,0-5.9-6.4-11.8-6.4c-5.9,0-5.9,6.4-11.8,6.4c-5.9,0-5.9-6.4-11.8-6.4
		c-5.9,0-5.9,6.4-11.8,6.4c-5.9,0-5.9-6.4-11.8-6.4c-5.9,0-5.9,6.4-11.8,6.4c-5.9,0-5.9-6.4-11.8-6.4c-5.9,0-5.9,6.4-11.8,6.4
		c-5.9,0-5.9-6.4-11.8-6.4c-1.6,0-2.8,0.5-3.8,1.2c0.4,1.3,0.6,2.7,0.6,4.1c0,8,6.5,14.5,14.5,14.5h86.4c9.8,0,19.1-7.4,19.4-19.7
		C318.3,311.7,317.9,317.4,312.4,317.4z"/>
</g>
<g id="Hügel">
	<path class="st14" d="M244.5,187.3c0,0-54.8-151.4-84-153.7S76.8,187.3,76.8,187.3H244.5z"/>
	<path class="st15" d="M205.4,173.5V71.2c0,0,0.9-23,29.4-23c10.3,0,20.4-3.3,28.5-9.7c10.5-8.4,15.1-19.5,30.4-21.2
		c13.8-1.6,17.9,10.6,17.9,22.4c-0.2,40.3,0,118.9,0,118.9L205.4,173.5z"/>
	<path class="st16" d="M471.2,147.7c0,0-31.9-149.2-117.2-49s-78.1,102.8-78.1,102.8h224L471.2,147.7z"/>
	<path class="st17" d="M133.3,221.9c0,0,50.9-80.4,223.1-80.4s156.4,80.4,156.4,80.4H133.3z"/>
	<path class="st18" d="M33.8,219.9c0,0,20.9-96.6,83.5-96.6s76.7,96.6,76.7,96.6h-37h-4.2H33.8z"/>
	<path class="st19" d="M311.5,39.4c0,7.2-0.1,15.6-0.1,24.6c0,0.4,0,0.8,0,1.2l-0.7-1.3l-3.6,6.3l-3.6,6.3l-3.6-6.3l-3.6-6.3
		l-3.6,6.3l-3.6,6.3h-1.2l-3.6-6.3l-3.6-6.3l-3.6,6.3l-3.6,6.3l-3.6-6.3l-3.6-6.3l-3.6,6.3l-3.6,6.3h-0.3l-3.6-6.3l-3.6-6.3
		l-3.6,6.3l-3.6,6.3l-3.6-6.3l-3.6-6.3l-3.6,6.3l-3.6,6.3H229l-3.6-6.3l-3.6-6.3l-3.6,6.3l-3.6,6.3l-3.6-6.3l-3.6-6.3l-1,1.7
		c2.1-6.8,8.6-17.8,28.4-17.8c10.3,0,20.4-3.3,28.5-9.7c10.5-8.4,15.1-19.5,30.4-21.2C307.5,15.4,311.5,27.6,311.5,39.4z"/>
	<g>
		<path class="st20" d="M528.6,217.5h-86.9c0,0,0.2-0.8,0.5-2.4c0.4-2.2,1.1-5.7,2.1-10.3c0.7-3.2,1.4-6.9,2.3-11.1
			c0.7-3.2,1.4-6.6,2.2-10.2c0.7-2.9,1.3-6,2-9.2c0.7-3.3,1.5-6.6,2.3-10.1c0.8-3.6,1.7-7.2,2.6-10.9c0.8-3.3,1.6-6.6,2.4-9.9
			c0.8-3.4,1.7-6.9,2.6-10.2v0c0.9-3.3,1.7-6.6,2.6-9.8c1-3.6,2-7,3-10.4c1-3.3,1.9-6.5,2.9-9.5c1-2.9,1.9-5.8,2.9-8.4
			c1.2-3.3,2.4-6.3,3.5-8.9c1.7-3.7,3.3-6.7,4.8-8.8c1.6-2.1,3.1-3.2,4.6-3c3.4,0.5,7.4,7.8,11.6,18.9c2.2,5.8,4.4,12.6,6.7,20v0
			c1.7,5.5,3.3,11.3,4.9,17.2c1.3,5,2.7,10,4,15.1c1.4,5.5,2.8,11,4,16.3c1.4,6,2.8,11.8,4,17.3v0c1.3,5.7,2.5,11.1,3.6,15.9
			c1.5,6.7,2.7,12.4,3.5,16.3C528.2,215.3,528.6,217.5,528.6,217.5z"/>
		<path class="st21" d="M462.6,157.9"/>
		<path class="st22" d="M462.6,157.8L462.6,157.8z"/>
		<path class="st19" d="M496.7,93.4l-16.1-15.9c1.6-2.1,3.1-3.2,4.6-3C488.5,75,492.5,82.3,496.7,93.4z"/>
		<path class="st19" d="M508.3,130.6l-36.1-35.5c1.2-3.3,2.4-6.3,3.5-8.9l27.6,27.2v0C505.1,118.9,506.7,124.7,508.3,130.6z"/>
		<path class="st19" d="M516.3,162.1L466.5,113c1-3.3,1.9-6.5,2.9-9.5l42.9,42.2C513.7,151.2,515,156.7,516.3,162.1z"/>
		<path class="st19" d="M523.9,195.2l-63.1-62.1v0c0.9-3.3,1.7-6.6,2.6-9.8l56.9,56v0C521.7,185.1,522.9,190.4,523.9,195.2z"/>
		<path class="st19" d="M528.6,217.5h-7.7l-65.2-64.1c0.8-3.3,1.6-6.6,2.4-9.9l69.2,68.1C528.2,215.3,528.6,217.5,528.6,217.5z"/>
		<path class="st19" d="M507.3,217.5h-12.6l-43.8-43.1c0.7-3.3,1.5-6.6,2.3-10.1L507.3,217.5z"/>
		<path class="st19" d="M483.3,217.5h-12.6l-24.1-23.8c0.7-3.2,1.4-6.6,2.2-10.2L483.3,217.5z"/>
		<path class="st19" d="M457.2,217.5h-12.6l-2.4-2.4c0.4-2.2,1.1-5.7,2.1-10.3L457.2,217.5z"/>
	</g>
</g>
<g id="Boden_1_">
	<path id="Boden" class="st13" d="M22.9,225.3h519c-1.5-4-5.4-6.9-10-6.9h-499C28.3,218.3,24.4,221.2,22.9,225.3z"/>
</g>
<g id="Luftballon">
	<g>
		<path class="st23" d="M58.6,77.4h-0.3c0-1.5,0.3-3.2,0.6-4h0.3c0,0,0,0,0,0C58.9,74.2,58.5,75.9,58.6,77.4z"/>
		<path class="st23" d="M57,77.4h-0.3c-0.2-1.5-0.1-3.2,0-4h0.3C56.9,74.2,56.8,75.9,57,77.4z"/>
		<path class="st23" d="M52.6,77.4c0-1.6-0.4-3.3-0.6-4c0,0,0,0,0,0h0.3c0.2,0.8,0.6,2.5,0.6,4H52.6z"/>
		<path class="st23" d="M54.5,77.4h-0.3c0.3-1.5,0.1-3.2,0-4h0.3C54.6,74.3,54.8,75.9,54.5,77.4z"/>
		<path class="st23" d="M57.2,82.3H54c-0.8,0-1.4-0.6-1.4-1.4v-3h5.9v3C58.5,81.7,57.9,82.3,57.2,82.3z"/>
		<path class="st23" d="M58.6,78.4h-6c-0.3,0-0.5-0.2-0.5-0.5l0,0c0-0.3,0.2-0.5,0.5-0.5h6c0.3,0,0.5,0.2,0.5,0.5l0,0
			C59.1,78.2,58.9,78.4,58.6,78.4z"/>
		<path class="st24" d="M59.1,73.4c6.2-8.9,18.2-16.1,18.2-28.9c0-11.7-9.7-17.6-21.8-17.6s-21.8,5.9-21.8,17.6
			c0,12.8,12.1,19.9,18.2,28.9H59.1z"/>
		<path class="st25" d="M71.8,42.9c0,11.7-6.8,19-11.6,26.9H51c-4.8-7.9-11.6-15.2-11.6-26.9c0-6,1.7-10.5,4.5-13.7
			c3.4-1.5,7.4-2.3,11.8-2.3c4.3,0,8.4,0.8,11.8,2.3C70.1,32.4,71.8,36.9,71.8,42.9z"/>
		<path class="st24" d="M66.2,42.9c0,11.7-4.5,19-7.6,26.9h-6.1C49.4,61.9,45,54.7,45,42.9c0-7.2,1.6-12.3,4.1-15.3
			c2.1-0.4,4.3-0.6,6.6-0.6c2.3,0,4.5,0.2,6.6,0.6C64.6,30.6,66.2,35.7,66.2,42.9z"/>
		<path class="st25" d="M59.1,42.9c0,11.7-1.5,19-2.5,26.9h-2c-1-7.9-2.5-15.2-2.5-26.9c0-7.7,0.6-13,1.5-15.9c0.7,0,1.3-0.1,2-0.1
			c0.7,0,1.3,0,2,0.1C58.5,29.9,59.1,35.2,59.1,42.9z"/>
		<path class="st24" d="M49.2,69.8c1,1.2,2,2.4,2.9,3.6h7c0.9-1.2,1.8-2.4,2.9-3.6H49.2z"/>
	</g>
</g>
<g id="Wolken">
	<g>
		<ellipse class="st5" cx="346.4" cy="31.9" rx="18.3" ry="12"/>
		<circle class="st5" cx="368.1" cy="37.8" r="10.5"/>
		<ellipse class="st5" cx="349.6" cy="41.7" rx="11.9" ry="9.7"/>
		<ellipse class="st25" cx="345.6" cy="30.8" rx="18.3" ry="12"/>
		<circle class="st25" cx="367.2" cy="36.7" r="10.5"/>
		<ellipse class="st25" cx="348.7" cy="40.6" rx="11.9" ry="9.7"/>
		<ellipse class="st25" cx="332.7" cy="36.7" rx="16.1" ry="10"/>
		<ellipse transform="matrix(0.9746 -0.2241 0.2241 0.9746 3.0472 77.0735)" class="st5" cx="341.1" cy="25.1" rx="5.6" ry="1.6"/>
	</g>
	<ellipse class="st25" cx="112.1" cy="18" rx="16.1" ry="10.4"/>
	<ellipse class="st5" cx="129.7" cy="29.2" rx="10.1" ry="7.8"/>
	<ellipse class="st5" cx="117.8" cy="34.4" rx="7.7" ry="5.5"/>
	<ellipse class="st25" cx="129.1" cy="28.5" rx="10.1" ry="7.8"/>
	<ellipse class="st25" cx="101.5" cy="27" rx="13.4" ry="7.8"/>
	<ellipse class="st25" cx="117.1" cy="33.8" rx="7.7" ry="5.5"/>
	<ellipse transform="matrix(0.9859 -0.1675 0.1675 0.9859 -0.475 18.3395)" class="st5" cx="108.5" cy="12" rx="4.3" ry="1.5"/>
	<ellipse class="st25" cx="116.9" cy="27.8" rx="5.6" ry="3.1"/>
	<g>
		<ellipse class="st25" cx="507.9" cy="20.2" rx="19.9" ry="11.7"/>
		<ellipse class="st25" cx="484.3" cy="39.3" rx="26.4" ry="15.5"/>
		<ellipse class="st5" cx="513.6" cy="47.2" rx="25.2" ry="15.8"/>
		<ellipse class="st5" cx="524" cy="35.1" rx="19.7" ry="7.6"/>
		<ellipse class="st25" cx="512.6" cy="46.1" rx="25.2" ry="15.8"/>
		<ellipse class="st25" cx="522.9" cy="34.1" rx="19.7" ry="7.6"/>
		<ellipse transform="matrix(0.9698 -0.244 0.244 0.9698 11.5324 123.1487)" class="st5" cx="502.9" cy="15" rx="8.6" ry="2.7"/>
	</g>
</g>
<g id="Fische">
	<g>
		<path class="st26" d="M356.2,277.3c3,0,5.4-2.3,5.7-5.2c4.2,2.9,5.9,9.6,13.2,9.6c7.7,0,13.9-4.5,13.9-10.1
			c0-5.6-6.2-10.1-13.9-10.1c-7.2,0-9.4,6.9-13.2,9.6c-0.2-2.9-2.7-5.2-5.7-5.2c0,0-0.1,0-0.1,0v11.4
			C356.1,277.3,356.2,277.3,356.2,277.3z"/>
		<path class="st27" d="M385.2,278.4c2.3-1.8,3.7-4.2,3.7-6.9c0-2.7-1.4-5.1-3.7-6.9c-2.3,1.4-3.9,3.9-3.9,6.9
			C381.3,274.5,382.9,277.1,385.2,278.4z"/>
		<path class="st28" d="M385.1,272.5c0.5,0,1-0.4,1-1c0-0.5-0.4-1-1-1s-1,0.4-1,1C384.2,272.1,384.6,272.5,385.1,272.5z"/>
		<path class="st29" d="M378.5,273.3c0.7-2.1-0.4-4.3-2.4-5.1c-2.1-0.7-4.3,0.4-5.1,2.4L378.5,273.3z"/>
		<path class="st28" d="M384.3,274.7L384.3,274.7L384.3,274.7c0-0.1,0.1-0.2,0.2-0.2c0.1,0,0.2,0.1,0.2,0.2c0,0.5,0.6,0.9,1.3,0.9h0
			h1.9l-0.2,0.3h-1.8C385.3,275.8,384.3,275.4,384.3,274.7z"/>
	</g>
	<g>
		<path class="st24" d="M273.6,304.1l-4.5-3.8c0,0,1.4,8.9,3.4,12.4l1.9-4.7"/>
		<path class="st24" d="M284.8,291.8c-0.9-1.8-1.3-3.9-1-5.9c0,0-8.5,0.6-11.2,8.7c0,0,0.8,3,2.8,3.3"/>
		
			<ellipse transform="matrix(0.955 -0.2965 0.2965 0.955 -77.0752 98.4645)" class="st15" cx="286" cy="303.3" rx="12.5" ry="11.4"/>
		<path class="st24" d="M286.3,307l-0.2,3.6c0,0-2.7,0.8-3.2-3.2l2.5-1.8"/>
		<path class="st28" d="M294.1,305.6L294.1,305.6L294.1,305.6c0-0.1,0.1-0.2,0.2-0.2c0.1,0,0.2,0.1,0.2,0.2c0,0.5,0.6,0.9,1.3,0.9h0
			h1.9l-0.2,0.3h-1.8C295,306.8,294.1,306.4,294.1,305.6z"/>
		<path class="st28" d="M293.4,302.4c0.5,0,0.9-0.4,0.9-0.9s-0.4-0.9-0.9-0.9s-0.9,0.4-0.9,0.9S292.9,302.4,293.4,302.4z"/>
	</g>
	<g>
		<path class="st30" d="M99.2,250.9l3.5-2.4c0,0,1.4,4.2,0.5,6.1l-3.6-1.9"/>
		<path class="st30" d="M82.9,246.8c0,0,0.7-1.4-0.9-2.8c0,0,9.4-0.9,15.1,2.4c0,0,0.1,1.5-1.9,1.9"/>
		<ellipse class="st31" cx="85.5" cy="252.2" rx="14.2" ry="5.4"/>
		<path class="st30" d="M86,254.4l2.1,2.4c0,0,4.7,0,3.5-2.8l-5-0.7"/>
		<path class="st28" d="M76.2,253.4L76.2,253.4L76.2,253.4c0-0.1-0.1-0.2-0.2-0.2c-0.1,0-0.2,0.1-0.2,0.2c0,0.5-0.6,0.9-1.3,0.9h0
			h-1.9l0.2,0.3h1.8C75.2,254.5,76.2,254.1,76.2,253.4z"/>
		<path class="st28" d="M75.4,252.1c0.5,0,1-0.4,1-1c0-0.5-0.4-1-1-1c-0.5,0-1,0.4-1,1C74.4,251.7,74.8,252.1,75.4,252.1z"/>
	</g>
</g>
<g id="Stahl">
	<g>
		<polyline class="st32" points="133.2,142.6 147.9,148.1 154.1,158.4 154.1,181 112.4,181 112.4,158.4 118.5,148.1 133.2,142.6 		
			"/>
		<g>
			<polygon class="st23" points="154.7,159.6 148.2,148.7 133.2,143.1 118.3,148.7 111.8,159.6 108.2,157.4 115.4,145.3 
				133.2,138.6 151,145.3 158.3,157.4 			"/>
		</g>
		
			<ellipse transform="matrix(0.7071 -0.7071 0.7071 0.7071 -70.9092 139.7648)" class="st23" cx="133.3" cy="155.5" rx="4.6" ry="4.6"/>
		<g>
			<polygon class="st25" points="131.8,173.6 125.8,167.6 125.8,179.5 			"/>
			<polygon class="st25" points="139.1,166.3 126.8,166.3 133,172.4 			"/>
			<polygon class="st25" points="133,174.6 126.7,180.8 139.3,180.8 			"/>
			<polygon class="st25" points="134.1,173.6 140.3,179.7 140.3,167.5 			"/>
		</g>
	</g>
	<path class="st21" d="M575.5,287.1"/>
	<path class="st33" d="M575.5,287.1"/>
	<path class="st34" d="M754.9,343.8"/>
	<path class="st35" d="M754.9,343.8"/>
</g>
<g id="Windrad">
	<g>
		<path class="st30" d="M399.4,56.6l-23.1-6.9c0,0,3.8,10.4,6.8,12.5C383.1,62.1,391.8,61.5,399.4,56.6"/>
		<rect x="373.8" y="58.5" class="st20" width="2.3" height="37.8"/>
		<path class="st36" d="M361.4,57.3c0,0,1.2-9,3.9-12c0,0,5.3-0.3,8.6,2.7l-0.3,2.1"/>
		<path class="st21" d="M361.4,57.3c0,0,1,8.7,6.2,16.1l6-23.4C373.6,50.1,363.3,54.2,361.4,57.3"/>
		<path class="st16" d="M361.4,57.3c0,0,1,8.7,6.2,16.1l6-23.4C373.6,50.1,363.3,54.2,361.4,57.3"/>
		<path class="st37" d="M366.7,35.4c0,0,8.9,1.5,11.9,4.4c0,0,0.1,5.3-3,8.5l-2.1-0.4"/>
		<path class="st21" d="M350.3,41l23.1,6.9c0,0-3.8-10.4-6.8-12.5C366.7,35.4,357.9,36.1,350.3,41"/>
		<path class="st11" d="M350.3,41l23.1,6.9c0,0-3.8-10.4-6.8-12.5C366.6,35.4,357.9,36.1,350.3,41"/>
		<path class="st38" d="M388.4,40.2c0,0-1.2,9-3.9,12c0,0-5.3,0.3-8.6-2.7l0.3-2.1"/>
		<path class="st21" d="M382.2,24.1l-6,23.4c0,0,10.2-4.2,12.2-7.3C388.4,40.2,387.4,31.5,382.2,24.1"/>
		<path class="st39" d="M382.2,24.1l-6,23.4c0,0,10.2-4.2,12.2-7.3C388.4,40.2,387.4,31.5,382.2,24.1"/>
		<path class="st40" d="M383.1,62.1c0,0-8.9-1.5-11.9-4.4c0,0-0.1-5.3,3-8.5l2.1,0.4"/>
		<path class="st34" d="M399.4,56.6l-23.1-6.9c0,0,3.8,10.4,6.8,12.5C383.1,62.1,391.8,61.5,399.4,56.6"/>
		<circle class="st20" cx="374.9" cy="48.6" r="1.9"/>
	</g>
	<g>
		<rect x="442.3" y="64.1" class="st20" width="1.8" height="29.8"/>
		<g>
			<path class="st36" d="M436.4,45.7c0,0,7.1,0.9,9.5,3.1c0,0,0.3,4.2-2.1,6.8l-1.7-0.3"/>
			<path class="st21" d="M436.4,45.7c0,0-6.8,0.8-12.7,4.9l18.4,4.7C442.1,55.4,438.8,47.3,436.4,45.7"/>
			<path class="st16" d="M436.4,45.7c0,0-6.8,0.8-12.7,4.9l18.4,4.7C442.1,55.4,438.8,47.3,436.4,45.7"/>
			<path class="st37" d="M453.7,49.9c0,0-1.2,7-3.5,9.4c0,0-4.2,0.1-6.7-2.4l0.3-1.7"/>
			<path class="st21" d="M449.3,37l-5.4,18.2c0,0,8.2-3,9.8-5.4C453.7,49.9,453.2,43.1,449.3,37"/>
			<path class="st11" d="M449.3,37l-5.4,18.2c0,0,8.2-3,9.8-5.4C453.7,49.9,453.2,43,449.3,37"/>
			<path class="st38" d="M449.9,67.1c0,0-7.1-0.9-9.5-3.1c0,0-0.3-4.2,2.1-6.8l1.7,0.3"/>
			<path class="st21" d="M462.6,62.2l-18.4-4.7c0,0,3.3,8.1,5.7,9.6C449.9,67.1,456.7,66.3,462.6,62.2"/>
			<path class="st39" d="M462.6,62.2l-18.4-4.7c0,0,3.3,8.1,5.7,9.6C449.9,67.1,456.8,66.3,462.6,62.2"/>
			<path class="st40" d="M432.6,62.9c0,0,1.2-7,3.5-9.4c0,0,4.2-0.1,6.7,2.4l-0.3,1.7"/>
			<path class="st34" d="M437,75.8l5.4-18.2c0,0-8.2,3-9.8,5.4C432.6,62.9,433.1,69.8,437,75.8"/>
			<path class="st30" d="M437,75.8l5.4-18.2c0,0-8.2,3-9.8,5.4C432.6,62.9,433.1,69.8,437,75.8"/>
			<circle class="st20" cx="443.3" cy="56.4" r="1.5"/>
		</g>
	</g>
	<g>
		<rect x="400" y="82.3" class="st20" width="2.5" height="42.2"/>
		<g>
			<path class="st36" d="M391.7,56.4c0,0,10,1.3,13.4,4.4c0,0,0.4,5.9-3,9.6l-2.4-0.4"/>
			<path class="st21" d="M391.7,56.4c0,0-9.7,1.1-18,6.9l26.1,6.7C399.8,70,395.1,58.6,391.7,56.4"/>
			<path class="st16" d="M391.6,56.4c0,0-9.7,1.1-18,6.9l26.1,6.7C399.7,70,395.1,58.6,391.6,56.4"/>
			<path class="st37" d="M416.1,62.3c0,0-1.7,10-4.9,13.3c0,0-5.9,0.2-9.5-3.4l0.5-2.4"/>
			<path class="st21" d="M409.8,44.1l-7.7,25.8c0,0,11.6-4.2,13.9-7.6C416.1,62.3,415.4,52.6,409.8,44.1"/>
			<path class="st11" d="M409.8,44.1l-7.7,25.8c0,0,11.6-4.2,13.9-7.6C416.1,62.3,415.3,52.6,409.8,44.1"/>
			<path class="st38" d="M410.7,86.6c0,0-10-1.3-13.4-4.4c0,0-0.4-5.9,3-9.6l2.4,0.4"/>
			<path class="st21" d="M428.7,79.7L402.7,73c0,0,4.7,11.4,8.1,13.6C410.7,86.6,420.4,85.5,428.7,79.7"/>
			<path class="st39" d="M428.7,79.7L402.7,73c0,0,4.7,11.4,8.1,13.6C410.8,86.6,420.4,85.5,428.7,79.7"/>
			<path class="st40" d="M386.3,80.7c0,0,1.7-10,4.9-13.3c0,0,5.9-0.2,9.5,3.4l-0.4,2.4"/>
			<path class="st34" d="M392.5,98.9l7.7-25.8c0,0-11.6,4.2-13.9,7.6C386.3,80.7,387,90.4,392.5,98.9"/>
			<path class="st30" d="M392.5,98.9l7.7-25.8c0,0-11.6,4.2-13.9,7.6C386.3,80.7,387,90.4,392.5,98.9"/>
			<circle class="st20" cx="401.4" cy="71.5" r="2.1"/>
		</g>
	</g>
</g>
<g id="traktor">
	<g>
		<g>
			<g>
				<path class="st23" d="M160,206.6c0,3.4,2.8,6.2,6.2,6.2c3.4,0,6.2-2.8,6.2-6.2s-2.8-6.2-6.2-6.2
					C162.8,200.4,160,203.1,160,206.6z"/>
				<path class="st17" d="M166.2,210.5c2.2,0,3.9-1.8,3.9-3.9c0-2.2-1.8-3.9-3.9-3.9c-2.2,0-3.9,1.8-3.9,3.9
					C162.3,208.7,164,210.5,166.2,210.5z"/>
				<path class="st23" d="M150.1,208.9c0,2.1,1.7,3.8,3.8,3.8s3.8-1.7,3.8-3.8c0-2.1-1.7-3.8-3.8-3.8S150.1,206.8,150.1,208.9z"/>
				<path class="st17" d="M153.9,210.4c0.8,0,1.5-0.7,1.5-1.5c0-0.8-0.7-1.5-1.5-1.5c-0.8,0-1.5,0.7-1.5,1.5
					C152.4,209.7,153.1,210.4,153.9,210.4z"/>
				<path class="st32" d="M158,192.9v4.8h14v-4.8c0-2.2-2.1-3.5-4.3-3.5h-6C159.6,189.4,158,190.7,158,192.9z M160.1,193.2
					c0-1.6,1.1-2.4,2.6-2.4h4.2c1.6,0,3.1,0.9,3.1,2.4v3.9h-10V193.2z"/>
				<path class="st32" d="M152.5,196.4h17c2.2,0,4,1.8,4,4v3c0,0.5-0.1,0.9-0.2,1.4c-0.8-3.1-3.6-5.4-7-5.4c-4,0-7.2,3.2-7.2,7.2
					c0,0.3,0,0.5,0,0.7h-0.6c-0.6-1.8-2.4-3.2-4.5-3.2c-1.7,0-3.2,0.9-4,2.3c-0.9-0.7-1.4-1.8-1.4-3v-3
					C148.5,198.2,150.3,196.4,152.5,196.4z"/>
				<rect x="153.5" y="192.1" class="st32" width="2" height="5"/>
			</g>
			<rect x="147.8" y="198.7" class="st32" width="1.1" height="2.7"/>
		</g>
	</g>
</g>
<g id="Bäume">
	<g>
		<path class="st41" d="M133.4,77.2c-0.7-0.8,0.7-3.1,3.6-7.4c3.6-5.5,4.6-5.7,5.1-5.7c0.7,0,1.5,0.3,5.2,5.6c3.1,4.5,4.7,6.8,4,7.6
			c-0.4,0.5-1.5,0.7-5.3-1c1.3,1.1,3.1,2.8,4.9,5.2c1.6,2.1,4.7,6.3,3.9,7.1c-0.3,0.3-1.7-0.2-4.4-1.3c-1.1-0.4-2-0.9-2.6-1.1
			c1.2,1.1,3,2.9,4.8,5.4c1,1.4,5.3,7.2,4,8.7c-0.7,0.8-3.2-0.1-8.2-1.9c-2.3-0.8-4.1-1.6-5.2-2.1c-1.3,0.7-3.3,1.6-5.7,2.7
			c-5.5,2.6-6.3,2.7-6.7,2.3c-1.1-1,0.9-5,2.4-8.1c1.3-2.7,2.6-4.7,3.6-6.1c-1,0.4-2.3,1-3.9,1.5c-1.9,0.6-2.9,0.8-3.2,0.5
			c-0.7-0.9,2.1-4.5,4-7c1.9-2.5,3.7-4.4,5-5.8C134.8,78,133.7,77.7,133.4,77.2z"/>
		<polygon class="st42" points="142.1,64.2 145.7,105.9 140.1,105.9 		"/>
	</g>
	<g>
		<path class="st41" d="M171.8,43.3c-0.4-0.5,0.5-1.9,2.2-4.6c2.2-3.4,2.8-3.5,3.1-3.5c0.4,0,0.9,0.2,3.2,3.4
			c1.9,2.8,2.9,4.2,2.5,4.7c-0.2,0.3-0.9,0.4-3.3-0.6c0.8,0.7,1.9,1.7,3,3.2c1,1.3,2.9,3.9,2.4,4.4c-0.2,0.2-1-0.1-2.7-0.8
			c-0.7-0.3-1.2-0.5-1.6-0.7c0.8,0.7,1.9,1.8,3,3.3c0.6,0.9,3.2,4.5,2.4,5.4c-0.4,0.5-2-0.1-5.1-1.2c-1.4-0.5-2.5-1-3.2-1.3
			c-0.8,0.4-2,1-3.5,1.7c-3.4,1.6-3.9,1.6-4.2,1.4c-0.7-0.6,0.5-3.1,1.5-5c0.8-1.6,1.6-2.9,2.2-3.7c-0.6,0.3-1.4,0.6-2.4,0.9
			c-1.2,0.3-1.8,0.5-2,0.3c-0.4-0.5,1.3-2.8,2.5-4.3c1.2-1.5,2.3-2.7,3.1-3.6C172.7,43.8,172,43.6,171.8,43.3z"/>
		<polygon class="st42" points="177.2,35.3 179.4,61 175.9,61 		"/>
	</g>
	<g>
		<path class="st43" d="M489.2,68.3c3.3-0.2,7.1,7.9,7.2,15c0.1,6.6-2.8,14.4-6,14.5c-3.3,0.1-6.7-7.7-7-14.3
			C483,76.6,485.9,68.4,489.2,68.3z"/>
		<g>
			<polygon class="st42" points="488.5,107.4 491.6,107.3 490.8,82.6 489.3,82.7 			"/>
			<polygon class="st42" points="489.6,83.1 493.6,77.6 490.5,85.4 			"/>
			<polygon class="st42" points="489.4,85.2 486.6,78 490.1,83.1 			"/>
			<path class="st42" d="M490.1,86.9c0.1-0.1,5.3-6.3,5.3-6.3l-4.8,8.7h-1.1l-5.2-7L490.1,86.9z"/>
			<polygon class="st42" points="490,91.7 495.1,86.8 489.9,94.5 485.3,88.2 			"/>
		</g>
	</g>
	<g>
		<path class="st43" d="M183.6,79.4c6.2-0.3,13.2,14.8,13.5,28.1c0.2,12.3-5.2,27-11.3,27.2c-6.2,0.2-12.6-14.3-13.2-26.8
			C172,95,177.4,79.7,183.6,79.4z"/>
		<g>
			<polygon class="st42" points="182.2,152.6 188.1,152.5 186.5,106.3 183.8,106.5 			"/>
			<polygon class="st42" points="184.2,107.2 191.8,96.9 185.9,111.5 			"/>
			<polygon class="st42" points="184,111.1 178.7,97.7 185.3,107.1 			"/>
			<path class="st42" d="M185.2,114.4c0.2-0.2,10-11.8,10-11.8l-8.9,16.3h-2.1l-9.7-13.2L185.2,114.4z"/>
			<polygon class="st42" points="185,123.3 194.6,114 184.8,128.6 176.3,116.7 			"/>
		</g>
	</g>
	<g>
		<path class="st44" d="M308.9,139.8c4.9-0.1,8.2,4.2,9.2,5.5c3.7,4.7,2,7.8,4.7,15.8c3,8.8,6.1,8.3,7.2,14.6
			c1.1,6.8-1.2,15.6-6.3,17.7c-3.7,1.6-5.5-1.9-12.7-1.8c-7.9,0.1-9.9,4.5-14.1,3c-5.3-1.9-8-11.2-7-18.4c0.8-6.5,3.9-6.1,6.3-14.9
			c2.1-8.1,0.3-11.1,3.6-15.8C300.5,144.5,303.8,139.8,308.9,139.8z"/>
		<polygon class="st45" points="309,141.2 307.2,213.4 314.5,213.4 		"/>
	</g>
	<g>
		<path class="st44" d="M255.7,144.2c2,0,3.3,1.7,3.7,2.2c1.5,1.9,0.8,3.1,1.9,6.3c1.2,3.5,2.4,3.3,2.9,5.8c0.4,2.7-0.5,6.2-2.5,7.1
			c-1.5,0.6-2.2-0.8-5.1-0.7c-3.2,0-4,1.8-5.6,1.2c-2.1-0.8-3.2-4.5-2.8-7.3c0.3-2.6,1.6-2.4,2.5-5.9c0.9-3.2,0.1-4.4,1.4-6.3
			C252.3,146.1,253.6,144.3,255.7,144.2z"/>
		<polygon class="st45" points="255.7,144.8 255,173.6 257.9,173.6 		"/>
	</g>
	<g>
		<path class="st44" d="M413.8,150.7c2,0,3.4,1.7,3.8,2.2c1.5,1.9,0.8,3.2,1.9,6.5c1.2,3.6,2.5,3.4,2.9,6c0.5,2.8-0.5,6.4-2.6,7.3
			c-1.5,0.7-2.3-0.8-5.2-0.7c-3.3,0-4.1,1.9-5.8,1.2c-2.2-0.8-3.3-4.6-2.9-7.5c0.3-2.7,1.6-2.5,2.6-6.1c0.9-3.3,0.1-4.5,1.5-6.5
			C410.3,152.6,411.7,150.7,413.8,150.7z"/>
		<polygon class="st45" points="413.8,151.3 413.1,180.9 416.1,180.9 		"/>
	</g>
	<g>
		<path class="st44" d="M388.3,152c3.3,0,5.5,2.8,6.1,3.6c2.4,3.1,1.3,5.2,3.2,10.5c2,5.9,4.1,5.5,4.8,9.7
			c0.7,4.6-0.8,10.4-4.2,11.8c-2.5,1.1-3.7-1.3-8.4-1.2c-5.3,0.1-6.6,3-9.4,2c-3.5-1.3-5.3-7.4-4.7-12.2c0.6-4.3,2.6-4,4.2-9.9
			c1.4-5.4,0.2-7.4,2.4-10.5C382.7,155.2,385,152.1,388.3,152z"/>
		<polygon class="st45" points="388.4,153 387.2,201.1 392.1,201.1 		"/>
	</g>
	<g>
		<path class="st41" d="M480,170.9c0.9-2,0.6-4.3-0.7-6.1c0.2-0.2,0.3-0.4,0.4-0.7c1.3-2.8-0.9-6.7-4.9-8.6c-0.5-0.2-1-0.4-1.5-0.6
			c0.6-2.8-0.3-5.5-2.4-6.5c-2.2-1.1-5.1,0.1-6.8,2.7c-0.4-0.3-0.9-0.6-1.4-0.9c-3-1.4-6.5-0.6-8.1,1.9c0,0,0,0-0.1,0
			c-3.3-1.5-7.2,0-8.8,3.4c-1.4,2.9-0.5,6.3,1.8,8.1c0,0,0,0.1-0.1,0.1c-1.5,3.2-0.5,6.9,2.2,8.8c-1,3.4,0.5,7,3.7,8.5
			c3.1,1.4,6.7,0.4,8.7-2.3c0.5,0.6,1.2,1.1,1.9,1.4c3.3,1.6,7.4-0.2,9.2-4c0.3-0.7,0.5-1.4,0.7-2.1
			C476.5,174.4,478.9,173.2,480,170.9z"/>
		<g>
			<polygon class="st42" points="459.9,203.1 465.2,202.9 463.8,161 461.3,161.1 			"/>
			<path class="st42" d="M462.6,168.3c0.2-0.1,9-10.7,9-10.7l-8.1,14.8h-1.9l-8.8-12L462.6,168.3z"/>
			<polygon class="st42" points="462.4,176.5 471.1,168 462.2,181.2 454.5,170.4 			"/>
		</g>
	</g>
	<path class="st46" d="M787.5,221.2"/>
</g>
<g id="Level">
	<g>
		<path class="st24" d="M347.7,250.8c0,16-15.8,29.4-15.8,29.4s-15.8-13.3-15.8-29.4c0-8.7,7.1-15.8,15.8-15.8
			C340.6,235.1,347.7,242.1,347.7,250.8z"/>
		<circle class="st25" cx="331.9" cy="250.8" r="11.2"/>
	</g>
	<g>
		<path class="st24" d="M512.2,128.4c0,16-15.8,29.4-15.8,29.4s-15.8-13.3-15.8-29.4c0-8.7,7.1-15.8,15.8-15.8
			C505.1,112.7,512.2,119.7,512.2,128.4z"/>
		<circle class="st25" cx="496.4" cy="128.4" r="11.2"/>
	</g>
	<g>
		<path class="st24" d="M91.1,164.8c0,16-15.8,29.4-15.8,29.4s-15.8-13.3-15.8-29.4c0-8.7,7.1-15.8,15.8-15.8S91.1,156.1,91.1,164.8
			z"/>
		<circle class="st25" cx="75.4" cy="164.8" r="11.2"/>
	</g>
	<g>
		<path class="st24" d="M367.9,170.9c0,16-15.8,29.4-15.8,29.4s-15.8-13.3-15.8-29.4c0-8.7,7.1-15.8,15.8-15.8
			C360.9,155.2,367.9,162.2,367.9,170.9z"/>
		<circle class="st25" cx="352.2" cy="170.9" r="11.2"/>
	</g>
	<g>
		<path class="st24" d="M428.7,25.7c0,16-15.8,29.4-15.8,29.4s-15.8-13.3-15.8-29.4c0-8.7,7.1-15.8,15.8-15.8S428.7,17,428.7,25.7z"
			/>
		<circle class="st25" cx="413" cy="25.7" r="11.2"/>
	</g>
	<g>
		<path class="st24" d="M166.2,24.1c0,16-15.8,29.4-15.8,29.4s-15.8-13.3-15.8-29.4c0-8.7,7.1-15.8,15.8-15.8
			C159.1,8.4,166.2,15.4,166.2,24.1z"/>
		<circle class="st25" cx="150.4" cy="24.1" r="11.2"/>
	</g>
	<g>
		<path class="st24" d="M273.7,66.6c0,16-15.8,29.4-15.8,29.4s-15.8-13.3-15.8-29.4c0-8.7,7.1-15.8,15.8-15.8
			C266.7,50.9,273.7,57.9,273.7,66.6z"/>
		<circle class="st25" cx="258" cy="66.6" r="11.2"/>
	</g>
	<g>
		<path class="st24" d="M248,191.4c0,16-15.8,29.4-15.8,29.4s-15.8-13.3-15.8-29.4c0-8.7,7.1-15.8,15.8-15.8
			C241,175.6,248,182.7,248,191.4z"/>
		<circle class="st25" cx="232.3" cy="191.4" r="11.2"/>
	</g>
</g>
</svg>
