<?xml version="1.0" encoding="utf-8"?>
<!-- Generator: Adobe Illustrator 24.0.0, SVG Export Plug-In . SVG Version: 6.00 Build 0)  -->
<svg version="1.1" xmlns="http://www.w3.org/2000/svg" xmlns:xlink="http://www.w3.org/1999/xlink" x="0px" y="0px"
	 viewBox="0 0 564.4 353.1" style="enable-background:new 0 0 564.4 353.1;" xml:space="preserve">
<style type="text/css">
	.st0{fill:#FBDDDB;}
	.st1{fill:#F3F3F3;}
	.st2{fill:#FFFFFF;}
	.st3{fill:#C7D5D7;}
	.st4{clip-path:url(#SVGID_2_);}
	.st5{fill:#8CD0DA;}
	.st6{fill:#DFEEEF;}
	.st7{fill:#A49AA1;}
	.st8{fill:#4C5655;}
	.st9{fill:#122E44;}
	.st10{fill:#6D5165;}
</style>
<g id="Hintergrund">
	<rect x="0.1" y="0" class="st0" width="564.4" height="353.1"/>
</g>
<g id="Wolken">
	<g>
		<ellipse class="st1" cx="130.7" cy="20.3" rx="18.3" ry="12"/>
		<circle class="st1" cx="152.4" cy="26.2" r="10.5"/>
		<ellipse class="st1" cx="133.8" cy="30.1" rx="11.9" ry="9.7"/>
		<ellipse class="st2" cx="129.9" cy="19.3" rx="18.3" ry="12"/>
		<circle class="st2" cx="151.5" cy="25.1" r="10.5"/>
		<ellipse class="st2" cx="133" cy="29" rx="11.9" ry="9.7"/>
		<ellipse class="st2" cx="116.9" cy="25.1" rx="16.1" ry="10"/>
		<ellipse transform="matrix(0.9746 -0.2241 0.2241 0.9746 0.154 28.4348)" class="st1" cx="125.3" cy="13.5" rx="5.6" ry="1.6"/>
	</g>
	<g>
		<ellipse class="st2" cx="60.5" cy="50.2" rx="16.1" ry="10.4"/>
		<ellipse class="st1" cx="78.1" cy="61.4" rx="10.1" ry="7.8"/>
		<ellipse class="st1" cx="66.2" cy="66.6" rx="7.7" ry="5.5"/>
		<ellipse class="st2" cx="77.5" cy="60.7" rx="10.1" ry="7.8"/>
		<ellipse class="st2" cx="49.9" cy="59.2" rx="13.4" ry="7.8"/>
		<ellipse class="st2" cx="65.6" cy="65.9" rx="7.7" ry="5.5"/>
		<ellipse transform="matrix(0.9859 -0.1675 0.1675 0.9859 -6.5903 10.1599)" class="st1" cx="56.9" cy="44.2" rx="4.3" ry="1.5"/>
		<ellipse class="st2" cx="65.3" cy="59.9" rx="5.6" ry="3.1"/>
	</g>
	<g>
		<ellipse class="st2" cx="514.7" cy="21.1" rx="19.9" ry="11.7"/>
		<ellipse class="st2" cx="491.1" cy="40.2" rx="26.4" ry="15.5"/>
		<ellipse class="st1" cx="520.4" cy="48" rx="25.2" ry="15.8"/>
		<ellipse class="st1" cx="530.8" cy="36" rx="19.7" ry="7.6"/>
		<ellipse class="st2" cx="519.4" cy="47" rx="25.2" ry="15.8"/>
		<ellipse class="st2" cx="529.7" cy="34.9" rx="19.7" ry="7.6"/>
		<ellipse transform="matrix(0.9698 -0.244 0.244 0.9698 11.5238 124.8348)" class="st1" cx="509.7" cy="15.9" rx="8.6" ry="2.7"/>
	</g>
</g>
<g id="Ebene_5">
	<g>
		<path class="st3" d="M126.4,268.1h320.3c0,0-55.2,71.3-160.2,71.3S126.4,268.1,126.4,268.1z"/>
		<g>
			<defs>
				<circle id="SVGID_1_" cx="286.6" cy="123.9" r="215.5"/>
			</defs>
			<clipPath id="SVGID_2_">
				<use xlink:href="#SVGID_1_"  style="overflow:visible;"/>
			</clipPath>
			<g class="st4">
				<path class="st5" d="M102.4,254.1c0,0,124.2-196.5,294.3-185.5S635,254.1,635,254.1H102.4z"/>
				<path class="st3" d="M-71.8,274.2c0,0,79.3-175.5,212.9-175.1c133.6,0.4,192,175.1,192,175.1H146.3H-71.8z"/>
				<path class="st6" d="M244.4,274.2c0,0,124.2-112.2,294.3-105.9S777,274.2,777,274.2H244.4z"/>
				<g>
					<path class="st7" d="M401.3,84.3c10.1-0.1,17,8.7,19,11.3c7.6,9.7,4.1,16,9.8,32.5c6.2,18.1,12.7,17.1,14.8,30.1
						c2.3,14.1-2.5,32.1-12.9,36.6c-7.7,3.3-11.4-4-26.1-3.8c-16.4,0.2-20.4,9.3-29,6.2c-10.9-4-16.4-23.1-14.5-37.9
						c1.7-13.4,8.1-12.5,12.9-30.6c4.4-16.6,0.5-22.8,7.4-32.5C384,94.1,390.8,84.4,401.3,84.3z"/>
					<polygon class="st8" points="401.5,87.3 397.7,236.2 412.9,236.2 					"/>
				</g>
				<g>
					<path class="st7" d="M148.2,97.5c6.7-0.1,11.3,5.8,12.7,7.5c5.1,6.5,2.7,10.7,6.5,21.7c4.1,12.1,8.4,11.4,9.9,20.1
						c1.5,9.4-1.7,21.4-8.6,24.4c-5.2,2.2-7.6-2.7-17.4-2.5c-10.9,0.2-13.6,6.2-19.4,4.1c-7.3-2.7-11-15.4-9.7-25.3
						c1.2-8.9,5.4-8.3,8.6-20.5c3-11.1,0.3-15.2,4.9-21.7C136.6,104.1,141.2,97.6,148.2,97.5z"/>
					<polygon class="st8" points="148.3,99.5 145.8,198.9 155.9,198.9 					"/>
				</g>
				<g>
					<path class="st7" d="M343.8,53.5"/>
					<path class="st7" d="M348.1,64.8"/>
					<path class="st7" d="M364.5,64"/>
					<path class="st7" d="M355.4,31.2"/>
					<line class="st8" x1="354.3" y1="65.3" x2="358.8" y2="65.3"/>
					<path class="st8" d="M355.4,32.1"/>
				</g>
				<g>
					<path class="st7" d="M392.1,27.7c3,0,5.1,2.6,5.6,3.4c2.3,2.9,1.2,4.8,2.9,9.7c1.8,5.4,3.8,5.1,4.4,9c0.7,4.2-0.8,9.6-3.8,10.9
						c-2.3,1-3.4-1.2-7.8-1.1c-4.9,0.1-6.1,2.8-8.6,1.8c-3.2-1.2-4.9-6.9-4.3-11.3c0.5-4,2.4-3.7,3.8-9.1c1.3-4.9,0.2-6.8,2.2-9.7
						C386.9,30.6,389,27.8,392.1,27.7z"/>
					<polygon class="st8" points="392.1,28.6 391,72.9 395.5,72.9 					"/>
				</g>
				<g>
					<path class="st7" d="M429.5,29.1c3,0,5.1,2.6,5.6,3.4c2.3,2.9,1.2,4.8,2.9,9.7c1.8,5.4,3.8,5.1,4.4,9c0.7,4.2-0.8,9.6-3.8,10.9
						c-2.3,1-3.4-1.2-7.8-1.1c-4.9,0.1-6.1,2.8-8.6,1.8c-3.2-1.2-4.9-6.9-4.3-11.3c0.5-4,2.4-3.7,3.8-9.1c1.3-4.9,0.2-6.8,2.2-9.7
						C424.4,32,426.4,29.2,429.5,29.1z"/>
					<polygon class="st8" points="429.6,30 428.5,74.3 433,74.3 					"/>
				</g>
				<g>
					<path class="st7" d="M358.4,27.4c3,0,5.1,2.6,5.6,3.4c2.3,2.9,1.2,4.8,2.9,9.7c1.8,5.4,3.8,5.1,4.4,9c0.7,4.2-0.8,9.6-3.8,10.9
						c-2.3,1-3.4-1.2-7.8-1.1c-4.9,0.1-6.1,2.8-8.6,1.8c-3.2-1.2-4.9-6.9-4.3-11.3c0.5-4,2.4-3.7,3.8-9.1c1.3-4.9,0.2-6.8,2.2-9.7
						C353.2,30.3,355.3,27.5,358.4,27.4z"/>
					<polygon class="st8" points="358.4,28.3 357.3,72.6 361.8,72.6 					"/>
				</g>
				<g>
					<path class="st9" d="M259,153.8h-0.9c-0.1-4.2,0.9-8.7,1.5-11h0.9c0,0,0.1-0.1,0.1-0.1C260.1,144.8,258.9,149.5,259,153.8z"/>
					<path class="st9" d="M254.8,153.8h-0.9c-0.7-4.2-0.2-8.7,0.1-11h0.9C254.6,145.1,254.1,149.6,254.8,153.8z"/>
					<path class="st9" d="M242.7,153.8c0.1-4.3-1-9-1.6-11.1c0,0,0,0.1,0.1,0.1h0.9c0.6,2.3,1.7,6.8,1.5,11H242.7z"/>
					<path class="st9" d="M247.9,153.8H247c0.7-4.2,0.2-8.8-0.1-11h0.9C248.2,145.1,248.6,149.6,247.9,153.8z"/>
					<path class="st9" d="M257.6,167.2h-13.4c-0.8,0-1.4-0.6-1.4-1.4v-10.6H259v10.6C259,166.5,258.3,167.2,257.6,167.2z"/>
					<path class="st9" d="M260,156.6h-18.2c-0.3,0-0.5-0.2-0.5-0.5v-1.7c0-0.3,0.2-0.5,0.5-0.5l18.2,0c0.3,0,0.5,0.2,0.5,0.5v1.7
						C260.5,156.3,260.3,156.6,260,156.6z"/>
					<path class="st10" d="M260.6,142.8c16.9-24.6,50.2-44.2,50.2-79.4c0-32.3-26.8-48.5-59.8-48.5S191,31.2,191,63.5
						c0,35.1,33.2,54.8,50.2,79.4H260.6z"/>
					<path class="st2" d="M295.5,58.9c0,32.3-18.7,52.2-31.9,74h-25.5c-13.2-21.7-31.9-41.7-31.9-74c0-16.5,4.7-29,12.3-37.5
						c9.3-4.2,20.5-6.3,32.4-6.3c11.9,0,23,2.1,32.4,6.3C290.9,29.9,295.5,42.4,295.5,58.9z"/>
					<path class="st10" d="M280.1,58.9c0,32.3-12.3,52.2-20.9,74h-16.7c-8.6-21.7-20.9-41.7-20.9-74c0-19.7,4.4-33.8,11.2-42.1
						c5.7-1.2,11.8-1.8,18.1-1.8c6.3,0,12.4,0.6,18.1,1.8C275.8,25.1,280.1,39.2,280.1,58.9z"/>
					<path class="st2" d="M260.5,58.9c0,32.3-4,52.2-6.9,74h-5.5c-2.8-21.7-6.9-41.7-6.9-74c0-21.1,1.6-35.6,4.1-43.7
						c1.8-0.1,3.6-0.2,5.5-0.2c1.8,0,3.7,0.1,5.5,0.2C258.9,23.3,260.5,37.8,260.5,58.9z"/>
					<path class="st10" d="M233.4,132.9c2.8,3.3,5.5,6.6,7.8,10h19.4c2.3-3.4,5-6.7,7.8-10H233.4z"/>
				</g>
			</g>
		</g>
		<rect x="62.4" y="254.1" class="st0" width="409.7" height="19.8"/>
	</g>
</g>
</svg>
