<?xml version="1.0" encoding="utf-8"?>
<!-- Generator: Adobe Illustrator 24.0.0, SVG Export Plug-In . SVG Version: 6.00 Build 0)  -->
<svg version="1.1" xmlns="http://www.w3.org/2000/svg" xmlns:xlink="http://www.w3.org/1999/xlink" x="0px" y="0px"
	 viewBox="0 0 564.4 353.1" style="enable-background:new 0 0 564.4 353.1;" xml:space="preserve">
<style type="text/css">
	.st0{fill:#9BCEC6;}
	.st1{clip-path:url(#SVGID_2_);fill-rule:evenodd;clip-rule:evenodd;fill:#D88F41;}
	.st2{clip-path:url(#SVGID_2_);}
	.st3{fill-rule:evenodd;clip-rule:evenodd;fill:#EC9D48;}
	.st4{opacity:0.5;fill:#FFFFFF;}
	.st5{fill-rule:evenodd;clip-rule:evenodd;fill:#FDCB35;}
	.st6{opacity:0.5;fill-rule:evenodd;clip-rule:evenodd;fill:#FFFFFF;}
	.st7{fill-rule:evenodd;clip-rule:evenodd;fill:#FFEDA9;}
	.st8{fill-rule:evenodd;clip-rule:evenodd;fill:#FFC643;}
	.st9{fill:#54A941;}
	.st10{fill:#45424B;}
	.st11{fill:#376936;}
	.st12{fill:#FDCB35;}
</style>
<g id="Hintergrund">
	<rect x="0.1" y="0" class="st0" width="564.4" height="353.1"/>
</g>
<g id="Ebene_13">
	<g>
		<defs>
			<circle id="SVGID_1_" cx="282.2" cy="124.2" r="215.5"/>
		</defs>
		<clipPath id="SVGID_2_">
			<use xlink:href="#SVGID_1_"  style="overflow:visible;"/>
		</clipPath>
		<path class="st1" d="M-219.2,183.3c0,0,117.6-155.1,379.6-145.9s339.8,138.8,339.8,138.8L-219.2,183.3z"/>
		<g class="st2">
			<path class="st3" d="M841.8,209.1l-61.7,61.7l111.7,3.2C891.8,274,878.6,244,841.8,209.1z"/>
			<path class="st3" d="M757,150.7L640.9,266.8l106.1,3.1l76.7-76.7C805.8,178.6,783.8,163.9,757,150.7z"/>
			<path class="st3" d="M388.2,128.2L260.7,255.7l75.4,2.2l151.3-151.3C452,110.6,418.8,118.4,388.2,128.2z"/>
			<path class="st3" d="M172.9,253.2l54.7,1.6l105.6-105.6C233.3,193.2,172.9,253.2,172.9,253.2z"/>
			<path class="st3" d="M585.5,105.3c-20.9-1.9-41.3-2.3-61.1-1.5L369.2,258.9l104,3L625,110.1C612.4,108.2,599.2,106.5,585.5,105.3
				z"/>
			<path class="st3" d="M653.7,115.5L506.3,262.9l101.4,2.9L733.5,140C710.2,130.4,683.7,121.9,653.7,115.5z"/>
			<path class="st3" d="M388.2,128.2L260.7,255.7l-33.1-1l105.6-105.6C350.4,141.6,368.8,134.5,388.2,128.2z"/>
			<path class="st4" d="M388.2,128.2L260.7,255.7l-33.1-1l105.6-105.6C350.4,141.6,368.8,134.5,388.2,128.2z"/>
			<path class="st3" d="M524.3,103.7L369.2,258.9l-33.1-1l151.3-151.3C499.5,105.2,511.8,104.2,524.3,103.7z"/>
			<path class="st4" d="M524.3,103.7L369.2,258.9l-33.1-1l151.3-151.3C499.5,105.2,511.8,104.2,524.3,103.7z"/>
			<path class="st3" d="M653.7,115.5L506.3,262.9l-33.1-1L625,110.1C634.9,111.7,644.5,113.5,653.7,115.5z"/>
			<path class="st4" d="M653.7,115.5L506.3,262.9l-33.1-1L625,110.1C634.9,111.7,644.5,113.5,653.7,115.5z"/>
			<path class="st3" d="M757,150.7L640.9,266.8l-33.1-1L733.5,140C741.7,143.4,749.5,147,757,150.7z"/>
			<path class="st4" d="M757,150.7L640.9,266.8l-33.1-1L733.5,140C741.7,143.4,749.5,147,757,150.7z"/>
			<path class="st3" d="M841.8,209.1l-61.7,61.7l-33.1-1l76.7-76.7C830.3,198.5,836.3,203.9,841.8,209.1z"/>
			<path class="st4" d="M841.8,209.1l-61.7,61.7l-33.1-1l76.7-76.7C830.3,198.5,836.3,203.9,841.8,209.1z"/>
		</g>
		<g class="st2">
			<path class="st5" d="M419.3,259.7h-526.1c0,0,14.4-20.1,39.1-46.7c4.8-5.2,10-10.6,15.5-16.1c6.7-6.8,13.9-13.7,21.6-20.7
				c5.3-4.8,10.8-9.6,16.5-14.3c11.2-9.4,23.2-18.5,35.9-27.1h0c5.9-4,11.9-7.9,18.1-11.6c9-5.4,18.3-10.4,27.9-14.9h0
				c6.5-3.1,13.2-5.9,19.9-8.4c13.4-5,27.2-8.9,41.3-11.2c7.7-1.3,15.5-2.1,23.4-2.4c15.8-0.6,31.9,0.9,48.1,5.1h0
				c1.9,0.5,3.8,1,5.8,1.6c8.5,2.5,16.6,5.2,24.5,8.1h0c27.7,10.1,51.8,22.5,72.7,35.7c16.3,10.3,30.6,21.2,43.1,32.1h0
				C399,214.5,419.3,259.7,419.3,259.7z"/>
			<path class="st6" d="M398.4,259.7h-24.7l-70.4-122.9c16.3,10.3,30.6,21.2,43.1,32.1h0L398.4,259.7z"/>
			<path class="st6" d="M321.5,259.7h-24.7L200.4,91.3c1.9,0.5,3.8,1,5.8,1.6c8.5,2.5,16.6,5.2,24.5,8.1h0L321.5,259.7z"/>
			<path class="st6" d="M251.6,259.7h-24.7L129,88.7c7.7-1.3,15.5-2.1,23.4-2.4L251.6,259.7z"/>
			<path class="st6" d="M179.1,259.7h-24.7L67.8,108.3c6.5-3.1,13.2-5.9,19.9-8.4L179.1,259.7z"/>
			<path class="st6" d="M118,259.7H93.3L21.8,134.8c5.9-4,11.9-7.9,18.1-11.6L118,259.7z"/>
			<path class="st6" d="M41.9,259.7H17.2l-47.8-83.5c5.3-4.8,10.8-9.6,16.5-14.3L41.9,259.7z"/>
			<path class="st6" d="M-16.3,259.7H-41L-67.8,213c4.8-5.2,10-10.6,15.5-16.1L-16.3,259.7z"/>
		</g>
		<g class="st2">
			<path class="st5" d="M272.4,55.8l16.1-2.2c0.5-0.1,0.9-0.1,1.4-0.2l0.8-0.1l0.1,0.1c0.1,0.1,0.3,0.1,0.4,0.1
				c5.7,0.6,10.2,7.1,10.2,14.4c0,6.9-4.1,12.1-9.3,12.1l-17.4,2.5L272.4,55.8z"/>
			<path class="st7" d="M271.1,58.6l16.1-2.2c0.4-0.1,0.9-0.2,1.4-0.2l0.8-0.1v0.1c0.1,0,0.3,0,0.5,0.1c5.5,0.6,10.1,6.9,10.2,14
				c-1.2-5.8-5.2-10.4-9.9-11c-0.1,0-0.3,0-0.5,0v-0.1l-0.8,0.1c-0.5,0-1,0.1-1.4,0.2l-16.1,2.2L271.1,58.6z"/>
			<path class="st3" d="M273.3,82.5c5.7,0,10.2-6,10.2-13.4s-4.6-13.4-10.2-13.4c-5.7,0-10.2,6.1-10.2,13.4S267.6,82.5,273.3,82.5z"
				/>
			<path class="st8" d="M273.3,58.8c4.4,0,7.9,4.6,7.9,10.3c0,4.2-2,7.9-4.9,9.5c1.5-1.9,2.5-4.5,2.5-7.4c0-5.7-3.5-10.3-7.9-10.3
				c-1,0-2,0.3-3,0.8C269.2,59.9,271.2,58.8,273.3,58.8z"/>
		</g>
		<g class="st2">
			<path class="st5" d="M229.7,44.2l16.1-2.2c0.5-0.1,0.9-0.1,1.4-0.2l0.8-0.1l0.1,0.1c0.1,0.1,0.3,0.1,0.4,0.1
				c5.7,0.6,10.2,7.1,10.2,14.4c0,6.9-4.1,12.1-9.3,12.1L232,70.8L229.7,44.2z"/>
			<path class="st7" d="M228.3,47l16.1-2.2c0.4-0.1,0.9-0.2,1.4-0.2l0.8-0.1v0.1c0.1,0,0.3,0,0.5,0.1c5.5,0.6,10.1,6.9,10.2,14
				c-1.2-5.8-5.2-10.4-9.9-11c-0.1,0-0.3,0-0.5,0v-0.1l-0.8,0.1c-0.5,0-1,0.1-1.4,0.2l-16.1,2.2L228.3,47z"/>
			<path class="st3" d="M230.5,70.9c5.7,0,10.2-6,10.2-13.4s-4.6-13.4-10.2-13.4s-10.2,6.1-10.2,13.4S224.8,70.9,230.5,70.9z"/>
			<path class="st8" d="M230.5,47.3c4.4,0,7.9,4.6,7.9,10.3c0,4.2-2,7.9-4.9,9.5c1.5-1.9,2.5-4.5,2.5-7.4c0-5.7-3.5-10.3-7.9-10.3
				c-1,0-2,0.3-3,0.8C226.5,48.4,228.4,47.3,230.5,47.3z"/>
		</g>
		<g class="st2">
			<path class="st9" d="M200.2,57.5c12.5-0.6,26.6,29.7,27.1,56.6c0.5,24.7-10.5,54.3-22.7,54.7c-12.4,0.4-25.4-28.9-26.5-54
				C176.9,88.9,187.8,58.1,200.2,57.5z"/>
			<g>
				<polygon class="st10" points="197.4,204.9 209.3,204.6 206,111.6 200.5,111.9 				"/>
				<polygon class="st10" points="201.5,113.3 216.8,92.8 204.9,122 				"/>
				<polygon class="st10" points="201,121.2 190.4,94.2 203.7,113.2 				"/>
				<path class="st10" d="M203.5,127.8c0.5-0.3,20-23.8,20-23.8l-18,32.8h-4.3l-19.6-26.5L203.5,127.8z"/>
				<polygon class="st10" points="203,145.8 222.3,127.2 202.6,156.5 185.5,132.5 				"/>
			</g>
		</g>
		<g class="st2">
			<path class="st11" d="M351.6,46.7c0.8-1.7,0.5-3.7-0.6-5.2c0.1-0.2,0.2-0.4,0.3-0.6c1.1-2.4-0.7-5.7-4.2-7.3
				c-0.4-0.2-0.8-0.4-1.3-0.5c0.5-2.4-0.3-4.7-2.1-5.5c-1.9-0.9-4.4,0.1-5.8,2.3c-0.4-0.3-0.8-0.5-1.2-0.7c-2.6-1.2-5.5-0.5-6.9,1.6
				c0,0,0,0,0,0c-2.8-1.3-6.2,0-7.5,2.9c-1.2,2.5-0.5,5.4,1.5,7c0,0,0,0.1-0.1,0.1c-1.3,2.8-0.4,6,1.9,7.6c-0.8,2.9,0.5,6,3.2,7.3
				c2.6,1.2,5.7,0.3,7.5-2c0.5,0.5,1,0.9,1.7,1.2c2.8,1.3,6.4-0.2,7.9-3.4c0.3-0.6,0.5-1.2,0.6-1.8
				C348.6,49.8,350.7,48.7,351.6,46.7z"/>
			<g>
				<polygon class="st10" points="334.4,74.3 339,74.2 337.7,38.3 335.6,38.4 				"/>
				<path class="st10" d="M336.8,44.5c0.2-0.1,7.7-9.2,7.7-9.2l-7,12.7h-1.6l-7.6-10.3L336.8,44.5z"/>
				<polygon class="st10" points="336.6,51.5 344,44.3 336.4,55.6 329.8,46.3 				"/>
			</g>
		</g>
		<g class="st2">
			<path class="st9" d="M134.8,44.4c9.9-0.5,21,23.5,21.4,44.7c0.4,19.5-8.3,42.9-18,43.2c-9.8,0.3-20-22.8-20.9-42.7
				C116.4,69.2,125,44.9,134.8,44.4z"/>
			<g>
				<polygon class="st10" points="132.6,160.8 141.9,160.5 139.4,87.1 135,87.4 				"/>
				<polygon class="st10" points="135.8,88.5 147.8,72.2 138.5,95.4 				"/>
				<polygon class="st10" points="135.4,94.7 127,73.4 137.5,88.4 				"/>
				<path class="st10" d="M137.4,99.9c0.4-0.3,15.8-18.8,15.8-18.8L139,107.1h-3.4l-15.5-21L137.4,99.9z"/>
				<polygon class="st10" points="137,114.2 152.2,99.4 136.6,122.6 123.2,103.6 				"/>
			</g>
		</g>
		<g class="st2">
			<path class="st9" d="M368.4,44.2c3.9-0.2,8.3,9.2,8.4,17.6c0.1,7.7-3.3,16.8-7.1,17c-3.8,0.1-7.9-9-8.2-16.8
				C361.2,53.9,364.6,44.3,368.4,44.2z"/>
			<g>
				<polygon class="st10" points="367.6,89.9 371.2,89.8 370.2,60.9 368.5,61 				"/>
				<polygon class="st10" points="368.8,61.5 373.6,55.1 369.9,64.2 				"/>
				<polygon class="st10" points="368.7,63.9 365.4,55.5 369.5,61.4 				"/>
				<path class="st10" d="M369.4,66c0.1-0.1,6.2-7.4,6.2-7.4l-5.6,10.2h-1.3l-6.1-8.2L369.4,66z"/>
				<polygon class="st10" points="369.3,71.6 375.3,65.8 369.2,74.9 363.9,67.4 				"/>
			</g>
		</g>
		<g class="st2">
			<path class="st9" d="M303.9,16.2c3.9-0.2,8.3,9.2,8.4,17.6c0.1,7.7-3.3,16.8-7.1,17c-3.8,0.1-7.9-9-8.2-16.8
				C296.6,26,300,16.4,303.9,16.2z"/>
			<g>
				<polygon class="st10" points="303,62 306.7,61.9 305.7,33 304,33.1 				"/>
				<polygon class="st10" points="304.3,33.5 309,27.2 305.3,36.2 				"/>
				<polygon class="st10" points="304.1,36 300.8,27.6 304.9,33.5 				"/>
				<path class="st10" d="M304.9,38c0.1-0.1,6.2-7.4,6.2-7.4l-5.6,10.2h-1.3l-6.1-8.2L304.9,38z"/>
				<polygon class="st10" points="304.7,43.6 310.7,37.8 304.6,46.9 299.3,39.5 				"/>
			</g>
		</g>
		<g class="st2">
			<path class="st11" d="M508.5,55c2.7-5.8,1.8-12.5-2-17.5c0.4-0.6,0.8-1.2,1.1-1.9c3.8-8.2-2.5-19.3-14.2-24.8
				c-1.4-0.7-2.9-1.2-4.3-1.7c1.8-8-0.9-15.8-7-18.7c-6.5-3-14.7,0.4-19.7,7.7c-1.2-0.9-2.6-1.8-4-2.5C449.7-8.5,439.7-6,435,1
				c-0.1,0-0.1-0.1-0.2-0.1c-9.4-4.4-20.8,0-25.4,9.8c-4,8.5-1.6,18.2,5.2,23.5c-0.1,0.1-0.1,0.3-0.2,0.4
				c-4.4,9.3-1.4,20.1,6.5,25.5c-2.8,9.8,1.5,20.4,10.8,24.7c8.9,4.2,19.4,1.1,25.2-6.7c1.5,1.7,3.4,3.1,5.6,4.2
				c9.6,4.5,21.5-0.7,26.6-11.5c0.9-2,1.6-4.1,1.9-6.1C498.3,65.3,505.3,61.6,508.5,55z"/>
			<g>
				<polygon class="st10" points="450.3,148.2 465.8,147.8 461.6,26.5 454.4,26.9 				"/>
				<path class="st10" d="M458.3,47.7c0.6-0.4,26.1-31.1,26.1-31.1L461,59.4h-5.6l-25.5-34.6L458.3,47.7z"/>
				<polygon class="st10" points="457.7,71.2 482.8,46.8 457,85 434.8,53.7 				"/>
			</g>
		</g>
	</g>
	<rect x="77.4" y="248.5" class="st0" width="409.7" height="19.8"/>
	<g>
		<path class="st12" d="M442.4,269.1c0,0-10.6,13.8-31.5,29.2l0,0c-8.7,6.4-19.1,13.1-31.3,19.3h0c-8.3,4.2-17.4,8.1-27.4,11.5
			c-7.1,2.4-14.5,4.5-22.3,6.2c-6,1.3-12.2,2.4-18.6,3.3c-6.2,0.8-12.6,1.4-19.2,1.7c-3.2,0.1-6.5,0.2-9.8,0.2s-6.6-0.1-9.8-0.2
			c-5.9-0.3-11.5-0.7-17.1-1.4c-5.8-0.7-11.4-1.6-16.9-2.7c-5.3-1.1-10.5-2.3-15.5-3.7c-5.5-1.6-10.8-3.3-15.9-5.2
			c-4.9-1.8-9.6-3.7-14.1-5.8c-4.3-1.9-8.3-3.9-12.2-6c-4.6-2.4-8.9-4.9-12.9-7.4c-4.9-3-9.3-6.1-13.4-9.1
			c-4.3-3.2-8.2-6.3-11.7-9.2c-13.7-11.6-20.6-20.6-20.6-20.6H442.4z"/>
		<path class="st4" d="M175,269.1L154.4,299c-4.3-3.2-8.2-6.3-11.7-9.2l14.2-20.6H175z"/>
		<path class="st4" d="M212.7,269.1l-31.9,46.4c-4.6-2.4-8.9-4.9-12.9-7.4l26.8-38.9H212.7z"/>
		<path class="st4" d="M247.1,269.1l-40,58.1c-4.9-1.8-9.6-3.7-14.1-5.8l36.1-52.4H247.1z"/>
		<path class="st4" d="M284.6,269.1l-46.2,67c-5.3-1.1-10.5-2.3-15.5-3.7l43.6-63.3H284.6z"/>
		<path class="st4" d="M321.4,269.1l-49,71.1c-5.9-0.3-11.5-0.7-17.1-1.4l48-69.7H321.4z"/>
		<path class="st4" d="M359.1,269.1l-47.8,69.5c-6.2,0.8-12.6,1.4-19.2,1.7l49-71.1H359.1z"/>
		<path class="st4" d="M393.5,269.1l-41.3,60c-7.1,2.4-14.5,4.5-22.3,6.2l45.6-66.2H393.5z"/>
		<path class="st4" d="M431,269.1l-20.1,29.2l0,0c-8.7,6.4-19.1,13.1-31.3,19.3l33.4-48.5H431z"/>
	</g>
</g>
</svg>
