<?xml version="1.0" encoding="utf-8"?>
<!-- Generator: Adobe Illustrator 24.0.0, SVG Export Plug-In . SVG Version: 6.00 Build 0)  -->
<svg version="1.1" xmlns="http://www.w3.org/2000/svg" xmlns:xlink="http://www.w3.org/1999/xlink" x="0px" y="0px"
	 viewBox="0 0 564.4 353.1" style="enable-background:new 0 0 564.4 353.1;" xml:space="preserve">
<style type="text/css">
	.st0{fill:#F9F0E3;}
	.st1{clip-path:url(#SVGID_2_);fill:#067F68;}
	.st2{clip-path:url(#SVGID_2_);}
	.st3{fill:#EC9D48;}
	.st4{opacity:0.5;fill:#FFFFFF;}
	.st5{clip-path:url(#SVGID_2_);fill:#6D5165;}
	.st6{clip-path:url(#SVGID_2_);fill:#C75D8E;}
	.st7{fill:#067F68;}
	.st8{fill:#523D4C;}
	.st9{fill:#122E44;}
	.st10{fill:#6D5165;}
	.st11{fill:#FFFFFF;}
	.st12{fill:#F3F3F3;}
	.st13{fill:none;stroke:#6AB2A4;stroke-width:3;stroke-linecap:round;stroke-miterlimit:10;}
	.st14{fill:none;stroke:#A797A3;stroke-width:3;stroke-linecap:round;stroke-miterlimit:10;}
</style>
<g id="Hintergrund">
	<rect x="0.1" y="0" class="st0" width="564.4" height="353.1"/>
</g>
<g id="Ebene_13">
	<g>
		<g>
			<defs>
				<circle id="SVGID_1_" cx="282.2" cy="125.4" r="215.5"/>
			</defs>
			<clipPath id="SVGID_2_">
				<use xlink:href="#SVGID_1_"  style="overflow:visible;"/>
			</clipPath>
			<path class="st1" d="M-5.7,291.7c0,0,36.9-262.4,149.4-262.4s125.4,267.1,125.4,267.1L-5.7,291.7z"/>
			<g class="st2">
				<path class="st3" d="M196.1,321.8V153.6c0,0,1.8-37.8,59.4-37.8c20.9,0,41.2-5.4,57.6-16c21.3-13.8,30.6-32,61.3-34.9
					c28-2.6,36.2,17.4,36.1,36.9c-0.4,66.3,0,195.5,0,195.5L196.1,321.8z"/>
				<path class="st4" d="M409.5,101.8c-0.1,11.9-0.1,25.7-0.2,40.5c0,0.7,0,1.3-0.1,2l-1.5-2.1l-7.3,10.3l-7.3,10.3l-7.3-10.3
					l-7.3-10.3l-7.3,10.3l-7.3,10.3h-2.5l-7.3-10.3l-7.3-10.3l-7.3,10.3l-7.3,10.3l-7.3-10.3l-7.3-10.3l-7.3,10.3l-7.3,10.3h-0.6
					l-7.3-10.3l-7.3-10.3l-7.3,10.3l-7.3,10.3l-7.3-10.3l-7.3-10.3l-7.3,10.3l-7.3,10.3h-1.3l-7.3-10.3l-7.3-10.3l-7.3,10.3
					l-7.3,10.3l-7.3-10.3l-7.3-10.3l-2,2.8c4.3-11.1,17.5-29.2,57.3-29.2c20.9,0,41.2-5.4,57.6-16c21.3-13.8,30.6-32,61.3-34.9
					C401.3,62.3,409.6,82.4,409.5,101.8z"/>
			</g>
			<path class="st5" d="M396.7,79.9c0,0,2.7-45.9,54.6-45.9s50.1,45.9,50.1,45.9v203.5l-104.7-4.5V79.9z"/>
			<path class="st6" d="M131.7,326.1c0,0,15-204.8,60.8-204.8s51,208.4,51,208.4L131.7,326.1z"/>
		</g>
		<path class="st7" d="M122.1,269.9h320.3c0,0-55.2,71.3-160.2,71.3S122.1,269.9,122.1,269.9z"/>
		<rect x="88" y="250.1" class="st0" width="409.7" height="19.8"/>
	</g>
	<g id="Ziege">
		<path id="XMLID_8_" class="st8" d="M173.5,46.6c1.7-0.9,1.3-1.7,3.4-2s5.9,0.3,7.2,0.3c1.3,0,3.9-0.3,4.9-0.5
			c1-0.2,1.5,0.1,2.6,0.3c1.2,0.2,3-0.6,4.3-1.8c1-0.9,2-1.9,2.4-2.4c-1.4-0.3-1.6-1.1-1.6-1.1c0.2,0,1-0.1,1.5,0.3
			c0.2,0.2,0.4,0.4,0.6,0.5c0.2-0.1,0.2-0.3,0.2-0.3s-0.6-1.9-2.1-2c-1.5-0.2-0.7-0.5,0.2-0.4c0.9,0.1,1.7,0.5,2.6,1.7
			c0.4,0.5,0.8,0.8,0.8,0.8s0.9,0.8,1,1.3c0.1,0.5,0.7,1.5,1.6,2.5c0.9,1,1,1,1,1.5c0,0.5-0.4,0.6-0.6,0.7c-0.2,0.1-0.5,0.4-0.7,0.2
			c-0.2-0.2-0.8-0.4-0.9-0.1c-0.2,0.3-0.5,0.7,0,1.5c0,0-0.3-0.2-0.4-0.7c0,0-0.2,0.5,0.2,1c0,0-0.4-0.3-0.5-0.8
			c0,0-0.1,0.4,0.2,0.9c0,0-0.8-0.3-0.8-1c-0.1-0.7,0.1-1,0.1-1s-0.4,0.5-0.3,1c0,0-0.4-1,0-1.6c0,0-0.6-0.2-0.8-0.4
			c-0.2-0.2-1-0.3-1.5,0.4c-0.6,0.8-1.8,2.5-2.4,3.2c-0.5,0.7-1.1,1-1,1.8c0.1,0.8-0.8,2.5-2.1,3c0,0-0.3,2.1-0.1,3.1
			c0.1,0.9,0.3,1.4,0,2c-0.3,0.6,0,2.6,0.2,2.9c0.2,0.3,0.4,0.4,0.5,0.8c0.1,0.4,0.2,0.2,0.3,0.6c0.2,0.4,0.3,0.4,0.3,0.4
			s-1.3,0.2-1.7-0.2c-0.4-0.5,0-0.6,0.1-0.7c0.1-0.1-0.2-0.7-0.2-0.6s-0.1,0.5-0.2,0.4c-0.1-0.1-0.4-0.4-0.3-0.6
			c0.1-0.3,0.2-2.7,0.1-3.1c-0.1-0.4-0.3-0.2-0.3-0.7s-0.3-1.6-0.3-2.2c0-0.6-0.5-1.8-0.5-1.8s0,0-0.1,0c-0.2,0.7-0.3,1.4-0.4,1.9
			c0,0.9,0.1,1.4-0.3,2c-0.4,0.6-0.4,2.6-0.3,2.9c0.1,0.3,0.4,0.4,0.4,0.8c0,0.4,0.1,0.2,0.2,0.6c0.1,0.4,0.2,0.4,0.2,0.4
			s-1.3,0.2-1.6-0.2c-0.3-0.5,0.1-0.6,0.2-0.7c0.1-0.1-0.1-0.7-0.1-0.6c-0.1,0.1-0.2,0.5-0.3,0.4c-0.1-0.1-0.4-0.4-0.2-0.6
			c0.1-0.3,0.7-2.7,0.7-3.1c0-0.4-0.3-0.2-0.2-0.7c0.1-0.5,0-1.6,0.1-2.2c0-0.2,0-0.6,0-0.9c-0.8,0-1.6,0.1-2,0.2
			c-0.9,0.2-2.7,1.3-5.2,0.2c-1.1-0.5-1.9-0.8-2.4-1c-0.1,0.2-0.3,0.5-0.5,0.8c-0.6,0.8-1,2-1.1,2.7c0,0.7-0.2,1-0.2,1.4
			c-0.1,0.4,0.1,2.2,0.3,2.6c0.2,0.5,0.4,0.5,0.6,0.8c0.2,0.4,0.2,0,0.5,0.4c0.2,0.4,0.4,0.7,0.4,0.7s-1.1,0.4-1.6-0.1
			c-0.5-0.5-0.6-0.6-0.4-0.8c0.3-0.2,0-0.6-0.1-0.6c-0.1,0-0.3,0.2-0.5-0.1c-0.1-0.4-0.1-0.3,0-0.6c0.1-0.3-0.4-3.8-0.5-4.3
			c-0.3,0.5-0.4,0.9-0.5,1.3c-0.1,0.7-0.3,1-0.5,1.4c-0.1,0.4-0.2,2.2-0.1,2.6c0.1,0.5,0.3,0.5,0.5,0.8c0.1,0.4,0.2,0,0.4,0.4
			c0.2,0.4,0.3,0.7,0.3,0.7s-1.2,0.4-1.6-0.1c-0.4-0.5-0.5-0.6-0.2-0.8c0.3-0.2,0.1-0.6,0-0.6c-0.1,0-0.4,0.2-0.4-0.1
			c-0.1-0.4-0.1-0.3,0.1-0.6c0.2-0.3,0.3-4.1,0.2-4.4c-0.1-0.3,1.1-1.2,1.3-2.7c0.2-1.5-1.3-3.8-1.7-4.6c-0.4-0.8,0.1-1.6,0.2-1.8
			c0.1-0.2-0.8-0.4-1.6,0.6C171.2,49,171.8,47.5,173.5,46.6z"/>
	</g>
</g>
<g id="Luftballon">
	<g>
		<path class="st9" d="M76.6,114.3h-0.7c-0.1-3.1,0.7-6.3,1.1-7.9h0.6c0,0,0-0.1,0.1-0.1C77.3,107.8,76.5,111.2,76.6,114.3z"/>
		<path class="st9" d="M73.5,114.3h-0.7c-0.5-3.1-0.2-6.3,0.1-7.9h0.7C73.3,107.9,73,111.2,73.5,114.3z"/>
		<path class="st9" d="M64.8,114.3c0.1-3.1-0.7-6.5-1.2-8c0,0,0,0.1,0.1,0.1h0.7c0.5,1.7,1.2,4.9,1.1,7.9H64.8z"/>
		<path class="st9" d="M68.6,114.3h-0.7c0.5-3,0.2-6.4-0.1-7.9h0.7C68.7,108,69,111.2,68.6,114.3z"/>
		<path class="st9" d="M75.1,123.9h-8.9c-0.8,0-1.4-0.6-1.4-1.4v-7.3h11.7v7.3C76.5,123.3,75.9,123.9,75.1,123.9z"/>
		<path class="st9" d="M77.1,116.2H64.3c-0.3,0-0.5-0.2-0.5-0.5v-1c0-0.3,0.2-0.5,0.5-0.5h12.9c0.3,0,0.5,0.2,0.5,0.5v1
			C77.6,116,77.4,116.2,77.1,116.2z"/>
		<path class="st10" d="M77.7,106.3c12.2-17.7,36.2-32,36.2-57.3c0-23.3-19.4-35-43.2-35S27.5,25.7,27.5,49
			c0,25.4,24,39.6,36.2,57.3H77.7z"/>
		<path class="st11" d="M102.9,45.7c0,23.3-13.5,37.7-23.1,53.4H61.5C52,83.4,38.4,69,38.4,45.7c0-11.9,3.4-20.9,8.9-27.1
			c6.7-3,14.8-4.6,23.4-4.6c8.6,0,16.6,1.5,23.4,4.6C99.6,24.7,102.9,33.8,102.9,45.7z"/>
		<path class="st10" d="M91.8,45.7c0,23.3-8.9,37.7-15.1,53.4H64.7C58.4,83.4,49.6,69,49.6,45.7c0-14.3,3.2-24.4,8.1-30.4
			c4.1-0.8,8.5-1.3,13-1.3c4.5,0,8.9,0.4,13,1.3C88.7,21.3,91.8,31.4,91.8,45.7z"/>
		<path class="st11" d="M77.6,45.7c0,23.3-2.9,37.7-5,53.4h-4c-2.1-15.7-5-30.1-5-53.4c0-15.2,1.2-25.7,3-31.6
			C68,14,69.4,14,70.7,14c1.3,0,2.6,0,3.9,0.1C76.4,19.9,77.6,30.5,77.6,45.7z"/>
		<path class="st10" d="M58,99.1c2.1,2.4,4,4.8,5.7,7.2h14c1.7-2.5,3.6-4.8,5.7-7.2H58z"/>
	</g>
</g>
<g id="Wolken">
	<g>
		<ellipse class="st12" cx="315.4" cy="45" rx="18.3" ry="12"/>
		<circle class="st12" cx="337.1" cy="50.9" r="10.5"/>
		<ellipse class="st12" cx="318.6" cy="54.8" rx="11.9" ry="9.7"/>
		<ellipse class="st11" cx="314.6" cy="44" rx="18.3" ry="12"/>
		<circle class="st11" cx="336.2" cy="49.9" r="10.5"/>
		<ellipse class="st11" cx="317.7" cy="53.8" rx="11.9" ry="9.7"/>
		<ellipse class="st11" cx="301.7" cy="49.9" rx="16.1" ry="10"/>
		
			<ellipse transform="matrix(0.9746 -0.2241 0.2241 0.9746 -0.6909 70.4611)" class="st12" cx="310.1" cy="38.3" rx="5.6" ry="1.6"/>
	</g>
	<g>
		<ellipse class="st12" cx="113.1" cy="76.4" rx="7.7" ry="5.5"/>
		<ellipse transform="matrix(0.9859 -0.1675 0.1675 0.9859 -7.5733 18.1503)" class="st12" cx="103.8" cy="54" rx="4.3" ry="1.5"/>
		<g>
			<ellipse class="st11" cx="107.4" cy="60" rx="16.1" ry="10.4"/>
			<ellipse class="st12" cx="125" cy="71.2" rx="10.1" ry="7.8"/>
			<ellipse class="st11" cx="124.4" cy="70.5" rx="10.1" ry="7.8"/>
			<ellipse class="st11" cx="96.8" cy="69" rx="13.4" ry="7.8"/>
			<ellipse class="st11" cx="112.4" cy="75.8" rx="7.7" ry="5.5"/>
			<ellipse class="st11" cx="112.2" cy="69.8" rx="5.6" ry="3.1"/>
		</g>
	</g>
	<g>
		<ellipse class="st11" cx="496.7" cy="31.1" rx="19.9" ry="11.7"/>
		<ellipse class="st11" cx="473.1" cy="50.2" rx="26.4" ry="15.5"/>
		<ellipse class="st12" cx="502.3" cy="58.1" rx="25.2" ry="15.8"/>
		<ellipse class="st12" cx="512.7" cy="46" rx="19.7" ry="7.6"/>
		<ellipse class="st11" cx="501.3" cy="57" rx="25.2" ry="15.8"/>
		<ellipse class="st11" cx="511.7" cy="45" rx="19.7" ry="7.6"/>
		<ellipse transform="matrix(0.9698 -0.244 0.244 0.9698 8.534 120.7328)" class="st12" cx="491.7" cy="25.9" rx="8.6" ry="2.7"/>
	</g>
</g>
<g id="Ebene_6">
	<line class="st13" x1="94.2" y1="101.6" x2="94.2" y2="111.8"/>
	<line class="st13" x1="135.1" y1="48.5" x2="135.1" y2="58.7"/>
	<line class="st13" x1="137" y1="121.1" x2="137" y2="131.2"/>
	<line class="st13" x1="181.5" y1="96.5" x2="181.5" y2="106.7"/>
	<line class="st13" x1="130.2" y1="206.4" x2="130.2" y2="216.6"/>
	<line class="st13" x1="85.4" y1="169.5" x2="85.4" y2="179.6"/>
	<line class="st14" x1="451.3" y1="67.7" x2="451.3" y2="77.9"/>
	<line class="st14" x1="422.7" y1="82.9" x2="422.7" y2="93.1"/>
	<line class="st14" x1="481.2" y1="96.7" x2="481.2" y2="106.9"/>
	<line class="st14" x1="442.4" y1="123.8" x2="442.4" y2="134"/>
	<line class="st14" x1="411.3" y1="153.4" x2="411.3" y2="163.6"/>
	<line class="st14" x1="475.6" y1="164.9" x2="475.6" y2="175"/>
	<line class="st14" x1="438" y1="199.6" x2="438" y2="209.8"/>
	<line class="st14" x1="415.8" y1="226.4" x2="415.8" y2="236.6"/>
</g>
</svg>
