<?xml version="1.0" encoding="utf-8"?>
<!-- Generator: Adobe Illustrator 24.0.0, SVG Export Plug-In . SVG Version: 6.00 Build 0)  -->
<svg version="1.1" xmlns="http://www.w3.org/2000/svg" xmlns:xlink="http://www.w3.org/1999/xlink" x="0px" y="0px"
	 viewBox="0 0 564.4 353.1" style="enable-background:new 0 0 564.4 353.1;" xml:space="preserve">
<style type="text/css">
	.st0{fill:#8CD0DA;}
	.st1{fill:none;}
	.st2{fill:#473A2D;}
	.st3{fill:#251C14;stroke:#473A2D;stroke-miterlimit:10;}
	.st4{fill:#6F553B;stroke:#473A2D;stroke-miterlimit:10;}
	.st5{clip-path:url(#SVGID_2_);fill:#6D5165;}
	.st6{clip-path:url(#SVGID_2_);}
	.st7{fill:#058570;}
	.st8{fill:none;stroke:#9BCEC6;stroke-width:3;stroke-linecap:round;stroke-miterlimit:10;}
	.st9{clip-path:url(#SVGID_2_);fill:#69B6A9;}
	.st10{clip-path:url(#SVGID_2_);fill:none;stroke:#9BCEC6;stroke-width:3;stroke-linecap:round;stroke-miterlimit:10;}
	.st11{clip-path:url(#SVGID_2_);fill:none;stroke:#8A7484;stroke-width:3;stroke-linecap:round;stroke-miterlimit:10;}
	.st12{fill:#A49AA1;}
	.st13{fill:#4C5655;}
	.st14{fill:#54A941;}
	.st15{fill:#45424B;}
	.st16{fill:#376936;}
	.st17{fill:#F3F3F3;}
	.st18{fill:#FFFFFF;}
	.st19{fill:#D9C3A4;}
</style>
<g id="Hintergrund">
	<rect x="0.1" y="0" class="st0" width="564.4" height="353.1"/>
	<line class="st1" x1="-455.1" y1="2.8" x2="481.1" y2="2.8"/>
</g>
<g id="wELT">
	<path class="st2" d="M122.2,268.7h320.3c0,0-55.2,71.3-160.2,71.3S122.2,268.7,122.2,268.7z"/>
	<circle class="st3" cx="284.6" cy="298.9" r="5.6"/>
	<circle class="st3" cx="357.6" cy="309.4" r="5.6"/>
	<circle class="st4" cx="306" cy="309.4" r="2.8"/>
	<circle class="st4" cx="387.2" cy="291.1" r="2.8"/>
	<circle class="st4" cx="262.2" cy="327.2" r="2.8"/>
	<circle class="st4" cx="243.6" cy="287.4" r="2.8"/>
	<circle class="st4" cx="169.8" cy="291.1" r="2.8"/>
	<circle class="st3" cx="308.8" cy="291.1" r="7.8"/>
	<circle class="st3" cx="194.2" cy="287.4" r="5.6"/>
	<circle class="st3" cx="207.9" cy="294.7" r="6.9"/>
	<g>
		<defs>
			<circle id="SVGID_1_" cx="282.2" cy="126.1" r="215.5"/>
		</defs>
		<clipPath id="SVGID_2_">
			<use xlink:href="#SVGID_1_"  style="overflow:visible;"/>
		</clipPath>
		<path class="st5" d="M274.9,249.5h268.8C543.7,249.5,431-410.6,274.9,249.5z"/>
		<g class="st6">
			<path class="st7" d="M44.9,249.5h139.9C184.9,249.5,126.2-170.7,44.9,249.5z"/>
			<line class="st8" x1="114.9" y1="113.7" x2="114.9" y2="123.9"/>
			<line class="st8" x1="137.6" y1="148.1" x2="137.6" y2="158.3"/>
			<line class="st8" x1="97.6" y1="149.3" x2="97.6" y2="159.5"/>
			<line class="st8" x1="125.8" y1="196.9" x2="125.8" y2="207.1"/>
			<line class="st8" x1="143.2" y1="227.2" x2="143.2" y2="237.4"/>
			<line class="st8" x1="75.3" y1="173.2" x2="75.3" y2="183.4"/>
			<line class="st8" x1="71.1" y1="215.3" x2="71.1" y2="225.5"/>
			<line class="st8" x1="97.6" y1="97.1" x2="97.6" y2="107.3"/>
			<line class="st8" x1="125.8" y1="78.8" x2="125.8" y2="89"/>
		</g>
		<path class="st9" d="M97.9,249.5h233.8C331.7,249.5,233.7-351.5,97.9,249.5z"/>
		<line class="st10" x1="233.4" y1="55" x2="233.4" y2="65.2"/>
		<line class="st10" x1="169" y1="108.6" x2="169" y2="118.8"/>
		<line class="st10" x1="156.8" y1="159.5" x2="156.8" y2="169.7"/>
		<line class="st10" x1="139.2" y1="215.3" x2="139.2" y2="225.5"/>
		<line class="st10" x1="218.5" y1="112.7" x2="218.5" y2="122.9"/>
		<line class="st10" x1="284.6" y1="214.8" x2="284.6" y2="225"/>
		<line class="st10" x1="238.1" y1="216.7" x2="238.1" y2="226.8"/>
		<line class="st10" x1="174.6" y1="68.6" x2="174.6" y2="78.8"/>
		<line class="st10" x1="258.3" y1="74.3" x2="258.3" y2="84.5"/>
		<line class="st10" x1="250.8" y1="165.9" x2="250.8" y2="176"/>
		<line class="st10" x1="194.4" y1="23.6" x2="194.4" y2="33.8"/>
		<line class="st10" x1="279.1" y1="134.8" x2="279.1" y2="145"/>
		<line class="st10" x1="233.4" y1="0.9" x2="233.4" y2="11"/>
		<line class="st11" x1="401" y1="-22.7" x2="401" y2="-12.5"/>
		<line class="st11" x1="415.7" y1="7.2" x2="415.7" y2="17.3"/>
		<line class="st11" x1="375.3" y1="36.1" x2="375.3" y2="46.2"/>
		<line class="st11" x1="352.1" y1="69.2" x2="352.1" y2="79.4"/>
		<line class="st11" x1="445.2" y1="60.1" x2="445.2" y2="70.3"/>
		<line class="st11" x1="408.1" y1="86.8" x2="408.1" y2="97"/>
		<line class="st11" x1="372.9" y1="128.1" x2="372.9" y2="138.2"/>
		<line class="st11" x1="372.9" y1="194.7" x2="372.9" y2="204.8"/>
		<line class="st11" x1="440.8" y1="130.9" x2="440.8" y2="141.1"/>
		<g class="st6">
			<path class="st12" d="M208.2,127.8c8.3-0.1,13.9,7.2,15.5,9.2c6.2,8,3.4,13.1,8,26.6c5.1,14.8,10.4,14,12.1,24.6
				c1.9,11.5-2.1,26.3-10.6,29.9c-6.3,2.7-9.3-3.3-21.4-3.1c-13.4,0.2-16.7,7.6-23.7,5.1c-8.9-3.3-13.4-18.9-11.9-31
				c1.4-10.9,6.6-10.2,10.6-25.1c3.6-13.6,0.4-18.7,6-26.6C194,135.9,199.6,127.9,208.2,127.8z"/>
			<polygon class="st13" points="208.4,130.3 205.3,252.1 217.7,252.1 			"/>
		</g>
		<g class="st6">
			<path class="st14" d="M311.7,98.7c12.8-0.6,27.3,30.5,27.8,58.1c0.5,25.4-10.7,55.7-23.3,56.1c-12.7,0.4-26-29.6-27.2-55.4
				C287.8,131,299,99.3,311.7,98.7z"/>
			<g>
				<polygon class="st15" points="308.8,249.9 321,249.6 317.7,154.2 312,154.5 				"/>
				<polygon class="st15" points="313,156 328.7,134.9 316.5,164.9 				"/>
				<polygon class="st15" points="312.5,164.1 301.6,136.4 315.2,155.8 				"/>
				<path class="st15" d="M315.1,170.8c0.5-0.3,20.6-24.4,20.6-24.4l-18.5,33.7h-4.4l-20.1-27.2L315.1,170.8z"/>
				<polygon class="st15" points="314.6,189.3 334.3,170.2 314.1,200.2 296.6,175.6 				"/>
			</g>
		</g>
		<g class="st6">
			<path class="st16" d="M394.2,170.1c-1.9-2.3,2-8.4,9.7-20.2c9.8-15.1,12.5-15.6,13.8-15.6c1.9,0,4.2,0.9,14,15.2
				c8.5,12.3,12.7,18.5,11,20.7c-1,1.3-4.1,1.9-14.5-2.6c3.5,3,8.3,7.7,13.4,14.1c4.4,5.6,12.7,17.1,10.6,19.4
				c-0.9,0.9-4.5-0.6-11.9-3.5c-3-1.2-5.5-2.3-7.1-3.1c3.4,3.1,8.2,8,13.2,14.7c2.7,3.8,14.3,19.7,10.8,23.8
				c-1.9,2.2-8.8-0.2-22.4-5.3c-6.1-2.3-11.1-4.3-14.2-5.7c-3.6,1.8-8.9,4.4-15.5,7.5c-15,7-17.2,7.2-18.3,6.2
				c-3-2.8,2.4-13.7,6.5-22c3.6-7.3,7.2-12.9,9.7-16.5c-2.7,1.2-6.2,2.7-10.6,4c-5.2,1.5-7.8,2.3-8.6,1.3c-2-2.4,5.7-12.2,11-19.1
				c5.2-6.7,10-12.1,13.6-15.8C398,172,395.2,171.2,394.2,170.1z"/>
			<polygon class="st15" points="417.9,134.5 427.8,248 412.5,248.2 			"/>
		</g>
	</g>
	<rect x="77.4" y="249" class="st0" width="409.7" height="19.8"/>
</g>
<g id="Wolken">
	<g>
		<ellipse class="st17" cx="346.4" cy="31.9" rx="18.3" ry="12"/>
		<circle class="st17" cx="368.1" cy="37.8" r="10.5"/>
		<ellipse class="st17" cx="349.6" cy="41.7" rx="11.9" ry="9.7"/>
		<ellipse class="st18" cx="345.6" cy="30.8" rx="18.3" ry="12"/>
		<circle class="st18" cx="367.2" cy="36.7" r="10.5"/>
		<ellipse class="st18" cx="348.7" cy="40.6" rx="11.9" ry="9.7"/>
		<ellipse class="st18" cx="332.7" cy="36.7" rx="16.1" ry="10"/>
		<ellipse transform="matrix(0.9746 -0.2241 0.2241 0.9746 3.0472 77.0735)" class="st17" cx="341.1" cy="25.1" rx="5.6" ry="1.6"/>
	</g>
	<g>
		<ellipse class="st18" cx="67.9" cy="20.6" rx="16.1" ry="10.4"/>
		<ellipse class="st17" cx="85.5" cy="31.9" rx="10.1" ry="7.8"/>
		<ellipse class="st17" cx="73.5" cy="37.1" rx="7.7" ry="5.5"/>
		<ellipse class="st18" cx="84.8" cy="31.2" rx="10.1" ry="7.8"/>
		<ellipse class="st18" cx="57.2" cy="29.6" rx="13.4" ry="7.8"/>
		<ellipse class="st18" cx="72.9" cy="36.4" rx="7.7" ry="5.5"/>
		<ellipse transform="matrix(0.9859 -0.1675 0.1675 0.9859 -1.5442 10.968)" class="st17" cx="64.3" cy="14.6" rx="4.3" ry="1.5"/>
		<ellipse class="st18" cx="72.6" cy="30.4" rx="5.6" ry="3.1"/>
	</g>
	<g>
		<ellipse class="st18" cx="507.9" cy="20.2" rx="19.9" ry="11.7"/>
		<ellipse class="st18" cx="484.3" cy="39.3" rx="26.4" ry="15.5"/>
		<ellipse class="st17" cx="513.6" cy="47.2" rx="25.2" ry="15.8"/>
		<ellipse class="st17" cx="524" cy="35.1" rx="19.7" ry="7.6"/>
		<ellipse class="st18" cx="512.6" cy="46.1" rx="25.2" ry="15.8"/>
		<ellipse class="st18" cx="522.9" cy="34.1" rx="19.7" ry="7.6"/>
		<ellipse transform="matrix(0.9698 -0.244 0.244 0.9698 11.5324 123.1487)" class="st17" cx="502.9" cy="15" rx="8.6" ry="2.7"/>
	</g>
</g>
<g id="vögel">
	<path class="st19" d="M386.5,97.4c0,0,4.5-2.1,0.9-5.4c-3.6-3.2-7.3-5.3-7.3-5.3s13,4.5,15,8.4c2.1,3.9,1.5,6.2,1.5,6.2
		s3.7,2.2,4.4,3.8c0.7,1.6,0.7,1.6,0.7,1.6s0.3-0.4-3.7,0.4c-4,0.8-5.7,4.9-8.6,6.5c-4.3,2.4-26,2.8-26,2.8s15.3-4.5,17.4-7.8
		c2.1-3.4-0.5-6-2.8-6.5c-3.7-0.8-16.4-3.1-16.4-3.1s13.3,1.3,13.8-0.2c0.5-1.5-6.7-7.5-6.7-7.5s5.2,4.4,11,5.7
		C385.2,98.5,386.5,97.4,386.5,97.4z"/>
	<path class="st19" d="M111.1,114c4,0.3,5,1.7,5.9,3c0.9,1.3,2.8,0.7,2.8,0.7s3.5-1.6,5.1-1.5c1.6,0.1,2.3,0.7,2.3,0.7
		s-3.7,4.2-4,6.5c-0.3,2.4,1.1,6.4-0.1,10c-1.1,3.5-13.7,21.6-16.2,24.1"/>
	<path class="st19" d="M107.1,157.6c0,0,6.1-15.3,6.6-19c0.4-3.6-0.9-8.2-3.4-7.6c-2.5,0.5-20.4,16.2-20.4,16.2s11.4-11.7,11.1-13
		c-0.3-1.3-14.4,1.8-14.4,1.8s15.9-4.3,19.3-7.6c3.4-3.3,4-6.1,2.2-7.5c-1.8-1.4-13-1.5-13-1.5s12.1-5.7,16-5.4"/>
</g>
</svg>
