<?xml version="1.0" encoding="utf-8"?>
<!-- Generator: Adobe Illustrator 24.0.0, SVG Export Plug-In . SVG Version: 6.00 Build 0)  -->
<svg version="1.1" id="Ebene_1" xmlns="http://www.w3.org/2000/svg" xmlns:xlink="http://www.w3.org/1999/xlink" x="0px" y="0px"
	 viewBox="0 0 564.4 353.1" style="enable-background:new 0 0 564.4 353.1;" xml:space="preserve">
<style type="text/css">
	.st0{fill:#DFEEEF;}
	.st1{clip-path:url(#SVGID_2_);fill:#4AABBB;}
	.st2{fill:#FFFFFF;}
	.st3{fill:#F3F3F3;}
	.st4{display:none;fill:#D9C3A4;}
	.st5{clip-path:url(#SVGID_4_);fill:#5CBDCD;}
	.st6{clip-path:url(#SVGID_6_);}
	.st7{fill:#E9E9E9;}
	.st8{fill:#CCCCCC;}
	.st9{fill:#B3B3B3;}
	.st10{fill:#D7D7D7;}
	.st11{clip-path:url(#SVGID_8_);fill:#459EAC;}
	.st12{clip-path:url(#SVGID_10_);fill:#4AABBB;}
	.st13{clip-path:url(#SVGID_12_);fill:#4AABBB;}
	.st14{clip-path:url(#SVGID_14_);fill:#467CA7;}
	.st15{clip-path:url(#SVGID_16_);fill:#59BFC7;}
	.st16{clip-path:url(#SVGID_18_);fill:#96D4DF;}
	.st17{clip-path:url(#SVGID_20_);fill:#96D4DF;}
	.st18{clip-path:url(#SVGID_22_);fill:#467CA7;}
	.st19{clip-path:url(#SVGID_24_);fill:#5CBDCD;}
	.st20{clip-path:url(#SVGID_26_);fill:#ADDEE6;}
	.st21{clip-path:url(#SVGID_28_);fill:#92CDD6;}
	.st22{clip-path:url(#SVGID_30_);fill:#F3F3F3;}
	.st23{clip-path:url(#SVGID_32_);fill:#FFFFFF;}
	.st24{clip-path:url(#SVGID_34_);fill:#FFFFFF;}
	.st25{clip-path:url(#SVGID_36_);fill:#459EAC;}
	.st26{clip-path:url(#SVGID_38_);fill:#ADDEE6;}
	.st27{clip-path:url(#SVGID_40_);fill:#4AABBB;}
	.st28{clip-path:url(#SVGID_42_);fill:#5CBDCD;}
	.st29{clip-path:url(#SVGID_44_);fill:#ADDEE6;}
	.st30{clip-path:url(#SVGID_46_);fill:#8AD0DB;}
	.st31{clip-path:url(#SVGID_48_);fill:#459EAC;}
	.st32{clip-path:url(#SVGID_50_);fill:#459EAC;}
	.st33{clip-path:url(#SVGID_52_);fill:none;}
	.st34{fill-rule:evenodd;clip-rule:evenodd;fill:#FDCB35;}
	.st35{fill-rule:evenodd;clip-rule:evenodd;fill:#FFE39E;}
	.st36{fill-rule:evenodd;clip-rule:evenodd;fill:#122E44;}
	.st37{fill-rule:evenodd;clip-rule:evenodd;fill:#DF552E;}
	.st38{fill:#DF552E;}
	.st39{fill:#EC9D48;}
	.st40{fill:#CFDD40;}
	.st41{fill:#D9C3A4;}
	.st42{fill:#C75D8E;}
	.st43{fill:#F8C6C3;}
	.st44{fill:#E09899;}
	.st45{fill:#6D5165;}
	.st46{display:none;}
	.st47{display:inline;}
</style>
<g id="Hintergrund">
	<rect x="0.1" class="st0" width="564.4" height="353.1"/>
</g>
<g>
	<defs>
		<circle id="SVGID_1_" cx="283.4" cy="123.8" r="215.5"/>
	</defs>
	<clipPath id="SVGID_2_">
		<use xlink:href="#SVGID_1_"  style="overflow:visible;"/>
	</clipPath>
	<path class="st1" d="M36.6,195c0,0,17.8-11.4,119.8,10.8c0,0,30.6,12.8,70.8,9c0,0,25.6-2.1,44.6-7.3c0,0,66.9-14.6,92.5-9.7
		c0,0,39.5,7.3,79.7,8.7c0,0,37.3,1.7,55.1,5.6c0,0,34.5,4.5,52.4,3.5v-27.1c0,0-78,9.4-156-4.2c0,0-54-14.2-127.6,3.8
		c0,0-39,13.9-95.8,6.6c0,0-40.1-6.6-63.5-15.6c0,0-16.7-10.1-81.9-8.7c0,0-28.4,0-54.6,5.2v28.8C-28,204.4-35.3,211,36.6,195z"/>
</g>
<g id="Wolken">
	<g>
		<ellipse class="st2" cx="98" cy="20.6" rx="16.1" ry="10.4"/>
		<ellipse class="st3" cx="115.6" cy="31.8" rx="10.1" ry="7.8"/>
		<ellipse class="st3" cx="103.6" cy="37" rx="7.7" ry="5.5"/>
		<ellipse class="st2" cx="114.9" cy="31.1" rx="10.1" ry="7.8"/>
		<ellipse class="st2" cx="87.3" cy="29.6" rx="13.4" ry="7.8"/>
		<ellipse class="st2" cx="103" cy="36.4" rx="7.7" ry="5.5"/>
		<ellipse transform="matrix(0.9859 -0.1675 0.1675 0.9859 -1.1099 16.0131)" class="st3" cx="94.4" cy="14.6" rx="4.3" ry="1.5"/>
		<ellipse class="st2" cx="102.7" cy="30.4" rx="5.6" ry="3.1"/>
	</g>
	<g>
		<ellipse class="st2" cx="468.2" cy="22.8" rx="19.9" ry="11.7"/>
		<ellipse class="st2" cx="444.6" cy="41.9" rx="26.4" ry="15.5"/>
		<ellipse class="st3" cx="473.9" cy="49.8" rx="25.2" ry="15.8"/>
		<ellipse class="st3" cx="484.2" cy="37.7" rx="19.7" ry="7.6"/>
		<ellipse class="st2" cx="472.9" cy="48.7" rx="25.2" ry="15.9"/>
		<ellipse class="st2" cx="483.2" cy="36.6" rx="19.7" ry="7.6"/>
		<ellipse transform="matrix(0.9698 -0.244 0.244 0.9698 9.7113 113.5558)" class="st3" cx="463.2" cy="17.6" rx="8.6" ry="2.7"/>
	</g>
</g>
<g id="schiff">
</g>
<circle class="st4" cx="-318.7" cy="-123.8" r="215.5"/>
<rect x="72" y="248.2" class="st0" width="409.7" height="19.8"/>
<g>
	<g>
		<defs>
			<circle id="SVGID_3_" cx="283.4" cy="123.8" r="215.5"/>
		</defs>
		<clipPath id="SVGID_4_">
			<use xlink:href="#SVGID_3_"  style="overflow:visible;"/>
		</clipPath>
		<rect x="37.7" y="268" class="st5" width="500.1" height="354.8"/>
	</g>
</g>
<g>
	<defs>
		<circle id="SVGID_5_" cx="283.4" cy="123.8" r="215.5"/>
	</defs>
	<clipPath id="SVGID_6_">
		<use xlink:href="#SVGID_5_"  style="overflow:visible;"/>
	</clipPath>
	<g class="st6">
		<polygon class="st7" points="273.6,66.7 435.8,18.9 282.1,133.9 		"/>
		<polygon class="st3" points="273.6,66.7 104.6,60.8 282.1,133.9 		"/>
		<polygon class="st8" points="236.7,134.5 232.2,98.7 270.2,39.3 281.4,128.3 		"/>
		<polygon class="st9" points="326.2,123.2 321.7,87.4 270.2,39.3 281.4,128.3 		"/>
		<polyline class="st8" points="278,102.5 435.7,19 367.5,127.6 278,102.8 		"/>
		<polygon class="st10" points="278.1,102.5 104.6,60.8 197.6,149.1 		"/>
	</g>
</g>
<g>
	<defs>
		<circle id="SVGID_7_" cx="283.4" cy="123.8" r="215.5"/>
	</defs>
	<clipPath id="SVGID_8_">
		<use xlink:href="#SVGID_7_"  style="overflow:visible;"/>
	</clipPath>
	<rect x="-39.3" y="114.9" class="st11" width="590.7" height="133.2"/>
</g>
<g>
	<defs>
		<circle id="SVGID_9_" cx="283.4" cy="123.8" r="215.5"/>
	</defs>
	<clipPath id="SVGID_10_">
		<use xlink:href="#SVGID_9_"  style="overflow:visible;"/>
	</clipPath>
	<path class="st12" d="M-14,130.2c0,0,46.8-4.2,94.2-21.2c0,0,55.4-25,143.8,8c0,0,52.5,16,115.3,18c0,0,67.9,3.8,107.9-18.4
		c0,0,37.7-21.2,102.7-21.2v35.4c0,0-36-11.1-91.9,4.2c0,0-33.1,12.1-85.6,17.7c0,0-73.1,5.6-118.1-5.6c0,0-63.4-21.8-99.3-30.2
		c0,0-33.7-5.6-65.6,4.9c0,0-67.3,23.2-121,21.5C-31.7,143.4-12.3,129.5-14,130.2z"/>
</g>
<g>
	<defs>
		<circle id="SVGID_11_" cx="283.4" cy="123.8" r="215.5"/>
	</defs>
	<clipPath id="SVGID_12_">
		<use xlink:href="#SVGID_11_"  style="overflow:visible;"/>
	</clipPath>
	<path class="st13" d="M15.2,301.1c0,0,46.8-4.2,94.2-21.2c0,0,55.4-25,143.8,8c0,0,52.5,16,115.3,18c0,0,67.9,3.8,107.9-18.4
		c0,0,37.7-21.2,102.7-21.2v35.4c0,0-36-11.1-91.9,4.2c0,0-33.1,12.1-85.6,17.7c0,0-73.1,5.5-118.1-5.5c0,0-63.4-21.9-99.3-30.2
		c0,0-33.7-5.5-65.6,4.9c0,0-67.3,23.2-121,21.5C-2.5,314.3,16.9,300.4,15.2,301.1z"/>
</g>
<g>
	<defs>
		<circle id="SVGID_13_" cx="283.4" cy="123.8" r="215.5"/>
	</defs>
	<clipPath id="SVGID_14_">
		<use xlink:href="#SVGID_13_"  style="overflow:visible;"/>
	</clipPath>
	<path class="st14" d="M38,118.4c0,0,17.8,11.4,119.8-10.8c0,0,30.6-12.8,70.8-9c0,0,25.6,2.1,44.6,7.3c0,0,66.9,14.6,92.5,9.7
		c0,0,39.5-7.3,79.7-8.7c0,0,37.3-1.7,55.1-5.6c0,0,34.5-4.5,52.4-3.5v27c0,0-78-9.4-156,4.2c0,0-54,14.2-127.6-3.8
		c0,0-39-13.9-95.8-6.6c0,0-40.1,6.6-63.5,15.6c0,0-16.7,10.1-81.9,8.7c0,0-28.4,0-54.6-5.2V109C-26.6,109-33.9,102.4,38,118.4z"/>
</g>
<g>
	<defs>
		<circle id="SVGID_15_" cx="283.4" cy="123.8" r="215.5"/>
	</defs>
	<clipPath id="SVGID_16_">
		<use xlink:href="#SVGID_15_"  style="overflow:visible;"/>
	</clipPath>
	<path class="st15" d="M-9.1,144.1c0,0,55.1,7.6,147.6-6.9c0,0,45.9-5.6,108.5,5.9c6.4-1.9,55,6.1,125.2-0.7c0,0,47.1-4.2,87.3,2.1
		c0,0,37.3,8.3,74.1,10.1c0,0,10.9,0.7,22.4-2.1v30.2c0,0-66.6-17.3-111.4-14.2c0,0-52.3,2.1-108.5,11.1c0,0-43.6,5.6-99.3-10.1
		c0,0-39.6-10.1-80.4-10.1c0,0-53.4,0-91.9,8.3c0,0-24.1,8-85,0.4L-9.1,144.1z"/>
</g>
<g>
	<defs>
		<circle id="SVGID_17_" cx="283.4" cy="123.8" r="215.5"/>
	</defs>
	<clipPath id="SVGID_18_">
		<use xlink:href="#SVGID_17_"  style="overflow:visible;"/>
	</clipPath>
	<path class="st16" d="M538.4,156.2c0,0-55.1,7.6-147.6-6.9c0,0-45.9-5.6-108.5,5.9c0,0-48.8,8-125.2-0.7c0,0-47.1-4.2-87.3,2.1
		c0,0-37.3,8.3-74.1,10.1c0,0-10.9,0.7-22.4-2.1v30.2c0,0,66.6-17.3,111.4-14.2c0,0,52.2,2.1,108.5,11.1c0,0,43.6,5.6,99.3-10.1
		c0,0,39.6-10.1,80.4-10.1c0,0,53.4,0,91.9,8.3c0,0,24.1,8,85,0.4L538.4,156.2z"/>
</g>
<g>
	<defs>
		<circle id="SVGID_19_" cx="283.4" cy="123.8" r="215.5"/>
	</defs>
	<clipPath id="SVGID_20_">
		<use xlink:href="#SVGID_19_"  style="overflow:visible;"/>
	</clipPath>
	<path class="st17" d="M517.6,290.1c0,0-55.1,7.6-147.6-6.9c0,0-45.9-5.5-108.5,5.9c0,0-48.8,8-125.2-0.7c0,0-47.1-4.2-87.3,2.1
		c0,0-37.3,8.3-74.1,10.1c0,0-10.9,0.7-22.4-2.1v30.2c0,0,66.6-17.3,111.4-14.2c0,0,52.3,2.1,108.5,11.1c0,0,43.6,5.5,99.3-10.1
		c0,0,39.6-10.1,80.4-10.1c0,0,53.4,0,91.9,8.3c0,0,24.1,8,85,0.4L517.6,290.1z"/>
</g>
<g>
	<defs>
		<circle id="SVGID_21_" cx="283.4" cy="123.8" r="215.5"/>
	</defs>
	<clipPath id="SVGID_22_">
		<use xlink:href="#SVGID_21_"  style="overflow:visible;"/>
	</clipPath>
	<path class="st18" d="M539.5,197.1c0,0-46.8,4.2-94.2,21.2c0,0-55.4,25-143.8-8c0,0-52.5-15.9-115.3-18c0,0-67.9-3.8-107.9,18.4
		c0,0-37.7,21.2-102.8,21.2v-35.4c0,0,36,11.1,91.9-4.2c0,0,33.1-12.1,85.6-17.7c0,0,73.1-5.6,118.1,5.6c0,0,63.4,21.9,99.3,30.2
		c0,0,33.7,5.6,65.6-4.9c0,0,67.4-23.2,121-21.5C557.2,183.9,537.8,197.8,539.5,197.1z"/>
</g>
<g>
	<defs>
		<circle id="SVGID_23_" cx="283.4" cy="123.8" r="215.5"/>
	</defs>
	<clipPath id="SVGID_24_">
		<use xlink:href="#SVGID_23_"  style="overflow:visible;"/>
	</clipPath>
	<path class="st19" d="M-17.8,213.1c0,0,55.1,7.6,147.6-6.9c0,0,45.9-5.6,108.5,5.9c0,0,48.8,8,125.2-0.7c0,0,47.1-4.2,87.3,2.1
		c0,0,37.3,8.3,74.1,10.1c0,0,10.9,0.7,22.4-2.1v30.2c0,0-66.6-17.3-111.4-14.2c0,0-52.3,2.1-108.5,11.1c0,0-43.6,5.6-99.3-10.1
		c0,0-39.6-10.1-80.4-10.1c0,0-53.4,0-91.9,8.3c0,0-24.1,8-85,0.4L-17.8,213.1z"/>
</g>
<g>
	<defs>
		<circle id="SVGID_25_" cx="283.4" cy="123.8" r="215.5"/>
	</defs>
	<clipPath id="SVGID_26_">
		<use xlink:href="#SVGID_25_"  style="overflow:visible;"/>
	</clipPath>
	<path class="st20" d="M491.3,131.9c0,0-17.8,11.4-119.8-10.8c0,0-30.6-12.8-70.8-9c0,0-25.6,2.1-44.6,7.3c0,0-66.9,14.6-92.5,9.7
		c0,0-39.5-7.3-79.7-8.7c0,0-37.3-1.7-55.2-5.6c0,0-34.5-4.5-52.4-3.5v27.1c0,0,78-9.4,156,4.2c0,0,54,14.2,127.6-3.8
		c0,0,39-13.9,95.8-6.6c0,0,40.1,6.6,63.5,15.6c0,0,16.7,10.1,81.9,8.7c0,0,28.4,0,54.6-5.2v-28.8C556,122.6,563.2,116,491.3,131.9z
		"/>
</g>
<g>
	<defs>
		<circle id="SVGID_27_" cx="283.4" cy="123.8" r="215.5"/>
	</defs>
	<clipPath id="SVGID_28_">
		<use xlink:href="#SVGID_27_"  style="overflow:visible;"/>
	</clipPath>
	<path class="st21" d="M-17.8,200.3c0,0,55.1-7.6,147.6,6.9c0,0,45.9,5.6,108.5-5.9c0,0,48.8-8,125.2,0.7c0,0,47.1,4.2,87.3-2.1
		c0,0,37.3-8.3,74.1-10.1c0,0,10.9-0.7,22.4,2.1v-30.2c0,0-66.6,17.3-111.4,14.2c0,0-52.3-2.1-108.5-11.1c0,0-43.6-5.6-99.3,10.1
		c0,0-39.6,10.1-80.4,10.1c0,0-53.4,0-91.9-8.3c0,0-24.1-8-85-0.4L-17.8,200.3z"/>
</g>
<g>
	<defs>
		<circle id="SVGID_29_" cx="283.4" cy="123.8" r="215.5"/>
	</defs>
	<clipPath id="SVGID_30_">
		<use xlink:href="#SVGID_29_"  style="overflow:visible;"/>
	</clipPath>
	<path class="st22" d="M-114.9,151.3c5.9-11.1,16.9-18.6,28-24c14.2-6.8,29.9-10.6,45.6-12c16.7-1.5,33.6-0.1,49.8,4.3
		c16.1,4.3,31.4,11.1,46.8,17.4c15.8,6.5,31.8,11.8,48.7,14.6c18,3,36.3,3.9,54.5,4.5c18.8,0.5,37.8,0.9,56.6-1.1
		c17.7-2,34.2-6.9,50.5-13.8c15.5-6.4,30.7-12.8,47-16.8c16.4-4,33-6.4,49.8-7.3c33.4-1.8,67.7,1.6,99.5,12.2
		c16.3,5.5,31.8,13,48,18.7c16.4,5.8,33.3,9,50.6,9.4c33.6,0.6,67-7.9,97.6-21.5c15.6-6.9,30.9-14.5,47.3-19.2
		c18.7-5.4,38-6.2,57.3-4.7c19.8,1.6,39.2,5.5,58.7,9.1l58.3,10.9l28.7,5.4c0.7,0.1,0.9-0.9,0.3-1c-39.2-7.3-78.4-15.4-117.7-21.8
		c-18.6-3-37.4-5.2-56.3-4c-17.6,1.2-34.4,5.9-50.7,12.7c-15.3,6.4-30,14-45.7,19.5c-17.2,6.1-35.2,10.5-53.4,12.4
		c-18.5,2-37.5,1.6-55.7-2.6c-17.3-4-33.5-11.3-49.9-17.9c-60.1-24.4-132.4-26.6-193.3-3.2c-16.9,6.5-33.2,14.7-51,18.9
		c-19,4.5-38.8,5.1-58.2,4.9c-37.7-0.4-75.5-1.9-111-15.4c-15.8-6-31-13.2-47-18.5c-15.6-5.1-31.6-8.1-48-7.9
		c-26.4,0.3-56.9,6.9-76.9,25.1c-3.9,3.4-7.1,7.5-9.6,12.1C-116.1,151.4-115.2,151.9-114.9,151.3z"/>
</g>
<g>
	<defs>
		<circle id="SVGID_31_" cx="283.4" cy="123.8" r="215.5"/>
	</defs>
	<clipPath id="SVGID_32_">
		<use xlink:href="#SVGID_31_"  style="overflow:visible;"/>
	</clipPath>
	<path class="st23" d="M-278.3,211.4c10.2,8.6,20.6,17.1,32.4,23.4c13.1,7,27.5,11,42.2,11.9c34.8,2.2,68.1-10.8,101.1-19.6
		c34.8-9.3,71-13.5,107-13c18.1,0.2,36.3,1.3,54,5.3c17.3,3.9,32.5,12.3,48.5,19.4c27.6,12.4,58.2,17.3,88.3,16.9
		c15.2-0.2,30.4-1.9,45.2-5.2c15.4-3.5,30.1-9.1,44.9-14.7c14.4-5.5,28.9-10.9,44-14.1c17.9-3.8,35.9-3.7,53.9-0.4
		c34.6,6.3,67.8,18,101,29.3c31.5,10.7,64.4,11.1,97,5.9c34.5-5.6,67.3-17.5,100.7-27.2c8.6-2.5,17.3-4.8,26-6.8
		c0.7-0.1,0.4-1.1-0.3-1C641,237,574.4,270.4,504.4,255.3c-16.8-3.6-32.5-10.6-48.8-15.9c-16.5-5.4-33.4-9.8-50.2-14.1
		c-16.3-4.2-32.8-7.8-49.7-7.6c-15.3,0.1-30.4,3.3-44.9,7.9c-29.6,9.4-57.3,22.9-88.4,27.1c-31.4,4.3-64.2,2.2-94.5-7
		c-15.7-4.8-29.9-12.6-44.9-19.1c-14.7-6.4-30.2-9.9-46.1-11.7c-34.3-3.8-69.5-2.1-103.5,3.5c-34.1,5.6-66.4,18.4-100.3,24.7
		c-17.9,3.3-36.6,4.3-54.4,0.1c-14.7-3.5-28.1-10.5-40.2-19.4c-5.6-4.1-10.9-8.6-16.2-13.1C-278.1,210.3-278.9,211-278.3,211.4
		L-278.3,211.4z"/>
</g>
<g>
	<defs>
		<circle id="SVGID_33_" cx="283.4" cy="123.8" r="215.5"/>
	</defs>
	<clipPath id="SVGID_34_">
		<use xlink:href="#SVGID_33_"  style="overflow:visible;"/>
	</clipPath>
	<path class="st24" d="M593.2,221.2c-27.8-32.9-75.7-46.3-117.3-38.1c-11.3,2.2-21.8,6.4-32.1,11.3c-12,5.8-24,12.4-37.3,14.9
		c-29,5.4-51.8-17.3-76.4-28.5c-11.9-5.4-24.4-8.6-37.5-8.4c-13.8,0.2-27.3,3.7-40.2,8.2c-26.1,9.1-51,22.5-79.1,24.5
		c-13.6,1-27.6-1-39.5-8c-10.9-6.4-19.4-16.1-29.5-23.5c-20.1-14.8-45.8-16.1-69.7-12.9c-28.5,3.9-55.5,14.8-84.2,18
		c-27.3,3.1-55-2.8-76.1-21.2c-4.7-4.1-8.9-8.7-12.5-13.8c-0.4-0.5-1.3,0-0.9,0.5c13.7,19.1,35.5,31.6,58.6,35.2
		c28.9,4.4,57.4-4.5,85.1-11.6c25.1-6.4,52.6-11.6,78-3.9c13.2,4,23.4,12,33.6,21c9.2,8.1,18.7,15.5,30.7,18.9
		c24.7,7,51.4-0.9,74.4-10c26.8-10.6,55.2-24.2,84.9-19.4c14,2.3,26.8,8.5,39,15.4c11.3,6.5,22.3,14.2,34.7,18.5
		c25.4,8.8,48-5.8,70.4-15.9c42.1-19,95.7-12.3,130.9,18.1c4,3.5,7.8,7.3,11.2,11.3C592.9,222.4,593.6,221.7,593.2,221.2
		L593.2,221.2z"/>
</g>
<g>
	<defs>
		<circle id="SVGID_35_" cx="283.4" cy="123.8" r="215.5"/>
	</defs>
	<clipPath id="SVGID_36_">
		<use xlink:href="#SVGID_35_"  style="overflow:visible;"/>
	</clipPath>
	<circle class="st25" cx="132.9" cy="142.9" r="12.7"/>
</g>
<path class="st2" d="M-199.2,249c10.2,8.7,20.6,17.1,32.4,23.4c13.1,7,27.5,11,42.2,11.9c34.8,2.2,68.1-10.8,101.1-19.6
	c34.8-9.3,71-13.5,107-13c18.1,0.2,36.3,1.3,54,5.3c17.3,3.9,32.5,12.3,48.5,19.4c27.6,12.4,58.2,17.3,88.3,16.9
	c15.2-0.2,30.4-1.9,45.2-5.2c15.4-3.5,30.1-9.1,44.9-14.7c14.4-5.5,28.9-10.9,44-14.1c17.9-3.8,35.9-3.7,53.9-0.4
	c34.6,6.3,67.8,18,101,29.3c31.5,10.7,64.4,11.1,97,5.9c34.5-5.6,67.3-17.5,100.7-27.2c8.6-2.5,17.3-4.8,26-6.8
	c0.7-0.1,0.4-1.1-0.3-1C720.1,274.7,653.6,308,583.6,293c-16.8-3.6-32.5-10.5-48.8-15.9c-16.5-5.4-33.4-9.8-50.2-14.1
	c-16.3-4.2-32.8-7.8-49.7-7.6c-15.3,0.1-30.4,3.3-44.9,7.9c-29.6,9.4-57.3,22.9-88.4,27.1c-31.4,4.3-64.2,2.2-94.5-7
	c-15.7-4.8-29.9-12.6-44.9-19.1c-14.7-6.4-30.2-9.9-46.1-11.7c-34.3-3.8-69.5-2.1-103.5,3.5c-34.1,5.6-66.4,18.4-100.3,24.7
	c-17.9,3.3-36.6,4.3-54.4,0.1c-14.7-3.5-28.1-10.5-40.2-19.4c-5.6-4.1-10.9-8.6-16.2-13.1C-198.9,247.9-199.7,248.6-199.2,249
	L-199.2,249z"/>
<g>
	<defs>
		<circle id="SVGID_37_" cx="283.4" cy="123.8" r="215.5"/>
	</defs>
	<clipPath id="SVGID_38_">
		<use xlink:href="#SVGID_37_"  style="overflow:visible;"/>
	</clipPath>
	<circle class="st26" cx="339.6" cy="143.9" r="9.2"/>
</g>
<g>
	<defs>
		<circle id="SVGID_39_" cx="283.4" cy="123.8" r="215.5"/>
	</defs>
	<clipPath id="SVGID_40_">
		<use xlink:href="#SVGID_39_"  style="overflow:visible;"/>
	</clipPath>
	<circle class="st27" cx="495.6" cy="183.1" r="5.7"/>
</g>
<g>
	<defs>
		<circle id="SVGID_41_" cx="283.4" cy="123.8" r="215.5"/>
	</defs>
	<clipPath id="SVGID_42_">
		<use xlink:href="#SVGID_41_"  style="overflow:visible;"/>
	</clipPath>
	<circle class="st28" cx="265.3" cy="169.6" r="9.2"/>
</g>
<g>
	<defs>
		<circle id="SVGID_43_" cx="283.4" cy="123.8" r="215.5"/>
	</defs>
	<clipPath id="SVGID_44_">
		<use xlink:href="#SVGID_43_"  style="overflow:visible;"/>
	</clipPath>
	<circle class="st29" cx="502" cy="121.2" r="6.2"/>
</g>
<g>
	<defs>
		<circle id="SVGID_45_" cx="283.4" cy="123.8" r="215.5"/>
	</defs>
	<clipPath id="SVGID_46_">
		<use xlink:href="#SVGID_45_"  style="overflow:visible;"/>
	</clipPath>
	<circle class="st30" cx="437.7" cy="228.2" r="8.1"/>
</g>
<g>
	<defs>
		<circle id="SVGID_47_" cx="283.4" cy="123.8" r="215.5"/>
	</defs>
	<clipPath id="SVGID_48_">
		<use xlink:href="#SVGID_47_"  style="overflow:visible;"/>
	</clipPath>
	<circle class="st31" cx="286.7" cy="236.6" r="7.3"/>
</g>
<g>
	<defs>
		<circle id="SVGID_49_" cx="283.4" cy="123.8" r="215.5"/>
	</defs>
	<clipPath id="SVGID_50_">
		<use xlink:href="#SVGID_49_"  style="overflow:visible;"/>
	</clipPath>
	<circle class="st32" cx="488.2" cy="156.2" r="7.6"/>
</g>
<g>
	<defs>
		<circle id="SVGID_51_" cx="283.4" cy="123.8" r="215.5"/>
	</defs>
	<clipPath id="SVGID_52_">
		<use xlink:href="#SVGID_51_"  style="overflow:visible;"/>
	</clipPath>
	<rect x="-14.4" y="-114.7" class="st33" width="554.9" height="346.8"/>
</g>
<g id="Fische">
	<g>
		<path class="st34" d="M464.8,165.6c-3,0-5.4-2.3-5.7-5.2c-4.2,2.9-5.9,9.6-13.2,9.6c-7.7,0-13.9-4.5-13.9-10.1s6.2-10.1,13.9-10.1
			c7.2,0,9.4,6.9,13.2,9.6c0.2-2.9,2.7-5.2,5.7-5.2c0,0,0.1,0,0.1,0v11.4C464.8,165.6,464.8,165.6,464.8,165.6z"/>
		<path class="st35" d="M435.7,166.8c-2.3-1.8-3.8-4.2-3.8-6.9c0-2.7,1.4-5.1,3.8-6.9c2.4,1.4,3.9,3.9,3.9,6.9
			C439.6,162.8,438.1,165.4,435.7,166.8z"/>
		<path class="st36" d="M435.8,160.8c-0.5,0-1-0.4-1-1c0-0.5,0.4-1,1-1s1,0.4,1,1S436.3,160.8,435.8,160.8z"/>
		<path class="st37" d="M442.5,161.6c-0.7-2.1,0.4-4.3,2.4-5.1s4.3,0.4,5.1,2.4L442.5,161.6z"/>
		<path class="st36" d="M436.7,163L436.7,163L436.7,163c0-0.1-0.1-0.2-0.2-0.2c-0.1,0-0.2,0.1-0.2,0.2c0,0.5-0.6,0.9-1.3,0.9l0,0
			h-1.9l0.1,0.3h1.8C435.7,164.1,436.7,163.7,436.7,163z"/>
	</g>
	<g>
		<path class="st38" d="M195.6,155.9l-4.5-3.9c0,0,1.4,8.9,3.4,12.4l1.9-4.7"/>
		<path class="st38" d="M206.8,143.6c-0.9-1.8-1.3-3.9-1-5.9c0,0-8.5,0.6-11.2,8.7c0,0,0.8,3,2.8,3.3"/>
		<ellipse transform="matrix(0.955 -0.2965 0.2965 0.955 -36.629 68.6572)" class="st39" cx="208" cy="155.1" rx="12.5" ry="11.4"/>
		<path class="st38" d="M208.3,158.8l-0.2,3.6c0,0-2.7,0.8-3.2-3.2l2.5-1.8"/>
		<path class="st36" d="M216.1,157.4L216.1,157.4L216.1,157.4c0-0.1,0.1-0.2,0.2-0.2c0.1,0,0.2,0.1,0.2,0.2c0,0.5,0.6,0.9,1.3,0.9
			l0,0h1.9l-0.1,0.3h-1.8C217.1,158.5,216.1,158.1,216.1,157.4z"/>
		<path class="st36" d="M215.4,154.1c0.5,0,0.9-0.4,0.9-0.9s-0.4-0.9-0.9-0.9s-0.9,0.4-0.9,0.9S214.9,154.1,215.4,154.1z"/>
	</g>
	<g>
		<path class="st40" d="M318.3,308l-3.9-3.4c0,0,1.3,7.8,3,10.9l1.6-4.2"/>
		<path class="st40" d="M328.2,297.1c-0.8-1.6-1.1-3.4-0.9-5.2c0,0-7.5,0.5-9.9,7.6c0,0,0.7,2.6,2.5,3"/>
		<ellipse transform="matrix(0.955 -0.2965 0.2965 0.955 -76.2947 111.4457)" class="st41" cx="329.3" cy="307.2" rx="11" ry="10"/>
		<ellipse transform="matrix(0.955 -0.2965 0.2965 0.955 -75.1979 112.9602)" class="st40" cx="334.8" cy="304.4" rx="0.8" ry="2"/>
		<path class="st40" d="M330.1,311.1l-0.3,4.6c0,0-3.5,1.1-4.2-4.2l3.3-2.4"/>
		<path class="st40" d="M340.1,307.6c0,0-1.7,1.4-2.5,0.8"/>
	</g>
	<g>
		<path class="st42" d="M198,216.7l4.6-3.1c0,0,1.9,5.6,0.6,8l-4.7-2.5"/>
		<path class="st42" d="M176.7,211.4c0,0,0.9-1.9-1.2-3.7c0,0,12.3-1.2,19.8,3.1c0,0,0.2,1.9-2.5,2.5"/>
		<ellipse class="st40" cx="180.1" cy="218.6" rx="18.5" ry="7.1"/>
		<circle class="st42" cx="169.7" cy="217.8" r="1.4"/>
		<path class="st42" d="M180.7,221.3l2.8,3.1c0,0,6.2,0,4.6-3.7l-6.5-0.9"/>
		<path class="st42" d="M162.8,221c0,0,3.4,0.6,4.3-1.2"/>
	</g>
	<g>
		<path class="st43" d="M255.7,174.5c0,0,36.6-24.4,83.2,0C339,174.5,306.2,199.5,255.7,174.5z"/>
		<path class="st43" d="M339,174.5l21.6-13.9c0,0-3.3,11.1,0,20L339,174.5z"/>
		<circle class="st42" cx="278.5" cy="172.3" r="2.8"/>
		<path class="st42" d="M294,181.7c0,0,11.1,1.7,10.5,9.4c0,0,7.8-2.8,6.1-7.8c0,0-7.2-2.2-11.7-2.8"/>
		<path class="st42" d="M265.2,178.9l10.5-1.1c0,0-7.2,4.1-8.9,1.5"/>
	</g>
	<g>
		<path class="st44" d="M136.2,163.4c0,0-17.7-16.7-26,8.1C110.1,171.5,126.8,189,136.2,163.4z"/>
		<path class="st45" d="M110.1,171.5l-10.3-9.4c0,0,3.9,8.9,5.1,16.6L110.1,171.5z"/>
		
			<ellipse transform="matrix(0.955 -0.2965 0.2965 0.955 -42.7876 45.4642)" class="st45" cx="128.5" cy="163.8" rx="0.9" ry="2.4"/>
		<path class="st45" d="M126,173.1c0,0-3.1,2.5-0.9,8.9c0,0-3.1-1.5-3.9-5.9c0,0,1.7-2.5,2.9-3.4"/>
		<path class="st45" d="M134.4,168l-3.6,0.1c0,0,3.3,2.7,3.2,0.4"/>
	</g>
</g>
<g id="Level" class="st46">
	<g class="st47">
		<path class="st38" d="M347.7,250.9c0,16-15.8,29.4-15.8,29.4s-15.8-13.3-15.8-29.4c0-8.7,7.1-15.8,15.8-15.8
			C340.6,235.1,347.7,242.1,347.7,250.9z"/>
		<circle class="st2" cx="331.9" cy="250.9" r="11.2"/>
	</g>
	<g class="st47">
		<path class="st38" d="M512.2,128.4c0,16-15.8,29.4-15.8,29.4s-15.8-13.3-15.8-29.4c0-8.7,7.1-15.8,15.8-15.8
			C505.1,112.7,512.2,119.7,512.2,128.4z"/>
		<circle class="st2" cx="496.4" cy="128.4" r="11.2"/>
	</g>
	<g class="st47">
		<path class="st38" d="M91.1,164.8c0,16-15.8,29.4-15.8,29.4s-15.8-13.3-15.8-29.4c0-8.7,7.1-15.8,15.8-15.8S91.1,156.1,91.1,164.8
			z"/>
		<circle class="st2" cx="75.4" cy="164.8" r="11.2"/>
	</g>
	<g class="st47">
		<path class="st38" d="M367.9,170.9c0,16-15.8,29.4-15.8,29.4s-15.8-13.3-15.8-29.4c0-8.7,7.1-15.8,15.8-15.8
			C360.9,155.2,367.9,162.2,367.9,170.9z"/>
		<circle class="st2" cx="352.2" cy="170.9" r="11.2"/>
	</g>
	<g class="st47">
		<path class="st38" d="M428.7,25.7c0,16-15.8,29.4-15.8,29.4s-15.8-13.3-15.8-29.4c0-8.7,7.1-15.8,15.8-15.8S428.7,17,428.7,25.7z"
			/>
		<circle class="st2" cx="413" cy="25.7" r="11.2"/>
	</g>
	<g class="st47">
		<path class="st38" d="M166.2,24.1c0,16-15.8,29.4-15.8,29.4s-15.8-13.3-15.8-29.4c0-8.7,7.1-15.8,15.8-15.8
			C159.1,8.4,166.2,15.4,166.2,24.1z"/>
		<circle class="st2" cx="150.4" cy="24.1" r="11.2"/>
	</g>
	<g class="st47">
		<path class="st38" d="M273.7,66.6c0,16-15.8,29.4-15.8,29.4s-15.8-13.3-15.8-29.4c0-8.7,7.1-15.8,15.8-15.8
			C266.7,50.9,273.7,57.9,273.7,66.6z"/>
		<circle class="st2" cx="258" cy="66.6" r="11.2"/>
	</g>
	<g class="st47">
		<path class="st38" d="M248.1,191.4c0,16-15.8,29.4-15.8,29.4s-15.8-13.3-15.8-29.4c0-8.7,7.1-15.8,15.8-15.8
			C241,175.6,248.1,182.7,248.1,191.4z"/>
		<circle class="st2" cx="232.3" cy="191.4" r="11.2"/>
	</g>
</g>
</svg>
