<?xml version="1.0" encoding="utf-8"?>
<!-- Generator: Adobe Illustrator 24.0.0, SVG Export Plug-In . SVG Version: 6.00 Build 0)  -->
<svg version="1.1" xmlns="http://www.w3.org/2000/svg" xmlns:xlink="http://www.w3.org/1999/xlink" x="0px" y="0px"
	 viewBox="0 0 564.44 353.13" style="enable-background:new 0 0 564.44 353.13;" xml:space="preserve">
<style type="text/css">
	.st0{fill:#DFEEEF;}
	.st1{fill:#8CD0DA;}
	.st2{fill:#C7D5D7;stroke:#122E44;stroke-width:1.1339;stroke-miterlimit:10;}
	.st3{fill:none;stroke:#122E44;stroke-width:1.1339;stroke-miterlimit:10;}
	.st4{fill:none;stroke:#DF552E;stroke-width:1.1339;stroke-miterlimit:10;}
	.st5{fill:#122E44;}
	.st6{fill:none;stroke:#DF552E;stroke-width:0.7087;stroke-miterlimit:10;}
</style>
<g id="Hintergrund">
	<rect x="0" y="0.5" class="st0" width="564.44" height="353.13"/>
</g>
<g id="Ebene_13">
	<path class="st1" d="M494.66,122.62c0,46.32-14.62,89.23-39.49,124.36H103.18C78.32,211.85,63.7,168.94,63.7,122.62
		c0-119,96.47-215.48,215.48-215.48C398.18-92.86,494.66,3.62,494.66,122.62z"/>
	<path class="st1" d="M117.21,269.11h320.31c0,0-55.18,71.33-160.15,71.33S117.21,269.11,117.21,269.11z"/>
	<path class="st2" d="M256.03,193.69c6.31-4.36,20.51-6.04,20.51-6.04c20.04-3.82,46.07-8.69,46.07-8.69
		c71.24-11.78,35.96-77.6,35.96-77.6s-39.43-17.33-67.07,10.3c0,0-17.01,11.38-17.54,47.09c0,0-2.06,14.29-19.29,14.67
		c0,0-6.47,2.02-12.42-2.38c0,0-12.83-19.61-34.12-4.7c0,0-0.87,3.52,2.65,4.38c0,0,3.24,0.94,3.47-2.71c0,0,5.44-2.04,7.53,2.48
		c0,0,2.24,5.68,6.7,8.38c0,0,12.06,6.66,16.69,7.22c0,0-15.02,7.57-16.36,16.59c0,0-1.57,7.59-0.95,12.21c0,0,0.77,5.17,0.31,6.79
		c0,0-1.17,1.21-2.23,0.59c0,0-4.67-2.95-4.08,3.77c0,0,7.65,6.93,18.74-1.98c0,0,8.96-5.66,10.75-18.09
		C251.36,205.98,251.43,195.5,256.03,193.69z"/>
	<path class="st3" d="M358.1,101.6c0,0-13.6,22.32-34.89,33.35"/>
	<path class="st4" d="M288.29,114.57c0,0,20.09,40.87,52.49,59.42"/>
	<path class="st4" d="M282.63,122.35c0,0,24.13,39.58,43.18,56.04"/>
	<path class="st4" d="M279.5,128.77c0,0,26.83,35.12,40.91,50.6"/>
	<path class="st4" d="M277.36,134.83c0,0,18.97,36.76,37.17,45.64"/>
	<path class="st4" d="M275.21,144.28c0,0,19.28,27.44,32.04,37.55"/>
	
		<ellipse transform="matrix(0.9326 -0.361 0.361 0.9326 -23.3276 121.5908)" class="st5" cx="313.8" cy="123.24" rx="5.33" ry="2.45"/>
	<path class="st2" d="M318.28,163.07c0,0,1.16,26.58-15.89,37.84l-2.31-22.53c0,0,6.36-3.76,4.04-12.42"/>
	<path class="st3" d="M301.52,192.4c0,0,15.44-10.89,11.34-21.7"/>
	<path class="st3" d="M299.95,184.88c0,0,6.78-0.44,9.38-10.84"/>
	<path class="st2" d="M443.58,120.76c2.36,3.83,8.24,4.04,8.24,4.04c3.51,0.24,5.81-0.7,5.81-0.7c5.16-1.73,9.3-7.89,9.3-7.89
		c-1.07-1.73-4.55,0.4-4.55,0.4c-12.55,5.33-14.36-5.78-14.36-5.78c3.15,5.49,8.38,3.47,8.38,3.47c5.86-2.17,6.45-5.89,6.45-5.89
		c1.16-3.59,4.99-4.75,4.99-4.75c5.03-1.18,0.74-3.09,0.74-3.09c-5.7-2.25-9.41,4.59-9.41,4.59c-5.75,5.46-10.49,1.66-10.49,1.66
		c-4.82-4.71,3.24-11.11,3.24-11.11C475.4,79.34,443.77,65,443.77,65c-34.14-1.29-20.17,24.9-20.17,24.9s7.9,16.73-4.91,10.71
		c0,0-1.83-1.03-4.86-8.28c0,0-2.89-6.62-5.06-1.2c0,0-0.47,1.97,2.92,3.96c0,0,0.03,2.38,2.78,9.56c0,0,0.95,3.49,9.01,3.33
		c0,0-6.48,3.51-11.51-1.55c0,0-2.41-2.35-5.57-2.81c0,0-4.76,0.05-2.7,2.62c0,0,1.06,0.55,3.93,0.94c0,0,2.54,1.79,4.91,5.62
		c0,0,7.74,8.67,18.09,1.33c0,0,1.24,9.79,6.43,10.43c0,0,6.25,1.19,8.23-9.63c0,0-0.44-1.89-2.86,0.8c0,0-2.27,3.32-3.69,1.8"/>
	<circle class="st5" cx="433.33" cy="82.7" r="2.89"/>
	<circle class="st5" cx="447.86" cy="85.26" r="2.89"/>
	<path class="st5" d="M434.47,90.39c0,0,2.62,2.7,8.71,2.07C443.18,92.46,435.09,101.52,434.47,90.39z"/>
	<path class="st4" d="M433.89,61.38c0,0,7.98-7.06,15.45-9.5c0,0,2.39-0.61,7.37,17.02"/>
	<path class="st4" d="M449.82,52.08c0,0-1.71,8.89-3.6,13.95"/>
	<path class="st4" d="M428.7,58.68c0,0,28.84,12.07,34.94,11.4c0,0-4.35,4-10.24,4.73c0,0-9.17,0.84-18.83-6.51
		C434.58,68.3,428.04,61.05,428.7,58.68z"/>
	<path class="st6" d="M425.27,101.57c0,0,10.73,5.35,21.86,1.99"/>
	<path class="st6" d="M422.55,101.81c0,0,15.13,6.58,24.7,3.65"/>
	<path class="st6" d="M448.6,107.11c0,0-12.94,3.16-27.38-4.73"/>
	<line class="st6" x1="421.42" y1="101.54" x2="418.55" y2="107.39"/>
	<line class="st6" x1="450.79" y1="107.93" x2="450.71" y2="113.25"/>
	<path class="st6" d="M420.96,103.52c0,0,8.83,6.55,29.5,5.82"/>
	<path class="st6" d="M419.92,105.34c0,0,8.48,5.58,30.89,4.97"/>
	<circle class="st3" cx="206.24" cy="74.38" r="2.02"/>
	<circle class="st3" cx="116.98" cy="323.58" r="2.02"/>
	<circle class="st3" cx="104.55" cy="238.75" r="2.02"/>
	<circle class="st3" cx="554.37" cy="19.78" r="2.02"/>
	<circle class="st3" cx="279.62" cy="228.35" r="3.47"/>
	<circle class="st3" cx="151.64" cy="254.94" r="3.47"/>
	<circle class="st3" cx="172.15" cy="228.35" r="3.47"/>
	<circle class="st3" cx="531.35" cy="296.24" r="3.47"/>
	<circle class="st3" cx="14.88" cy="174.72" r="4.33"/>
	<circle class="st3" cx="397.77" cy="12.84" r="4.19"/>
	<circle class="st3" cx="329.74" cy="17.32" r="4.48"/>
	<circle class="st3" cx="368.74" cy="88.1" r="3.03"/>
	<circle class="st3" cx="246.97" cy="19.78" r="4.62"/>
	<circle class="st3" cx="242.21" cy="109.48" r="2.46"/>
	<circle class="st3" cx="99.79" cy="102.83" r="2.74"/>
	<circle class="st3" cx="30.87" cy="240.77" r="2.74"/>
	<circle class="st3" cx="358.1" cy="342.45" r="2.74"/>
	<circle class="st3" cx="97.04" cy="20.93" r="3.47"/>
	<circle class="st3" cx="51.35" cy="140.81" r="3.47"/>
	<circle class="st3" cx="144.42" cy="81.02" r="2.6"/>
	<circle class="st3" cx="325.26" cy="49.24" r="3.18"/>
	<circle class="st3" cx="267.34" cy="65.28" r="3.32"/>
	<circle class="st3" cx="172.15" cy="29.02" r="4.62"/>
	<circle class="st3" cx="411.63" cy="42.31" r="6.93"/>
	<circle class="st3" cx="404.7" cy="244.54" r="6.93"/>
	<circle class="st3" cx="504.59" cy="24.4" r="6.93"/>
	<circle class="st3" cx="470.28" cy="272.76" r="6.93"/>
	<circle class="st3" cx="424.35" cy="143.13" r="2.89"/>
	<circle class="st3" cx="252.56" cy="293.78" r="2.89"/>
	<circle class="st3" cx="113.94" cy="162.63" r="3.03"/>
	<circle class="st3" cx="368.49" cy="293.92" r="3.03"/>
	<circle class="st3" cx="189.92" cy="121.9" r="1.88"/>
	<circle class="st3" cx="65.58" cy="29.02" r="1.88"/>
	<circle class="st3" cx="321.43" cy="281.94" r="1.88"/>
	<circle class="st3" cx="426.8" cy="205.38" r="2.46"/>
	<circle class="st3" cx="528.9" cy="113.25" r="2.46"/>
	<circle class="st3" cx="231.69" cy="323.58" r="2.46"/>
	<circle class="st3" cx="480.53" cy="96.76" r="3.32"/>
	<circle class="st3" cx="504.59" cy="206.25" r="3.32"/>
	<circle class="st3" cx="350.39" cy="221.42" r="3.47"/>
	<circle class="st3" cx="181.61" cy="292.77" r="3.47"/>
	<circle class="st3" cx="426.8" cy="328.52" r="3.47"/>
	<circle class="st3" cx="54.82" cy="304.77" r="4.04"/>
	<circle class="st3" cx="145.43" cy="196.72" r="6.21"/>
	<circle class="st3" cx="78.43" cy="157.65" r="6.21"/>
	<circle class="st3" cx="21.09" cy="66.14" r="6.21"/>
	<circle class="st3" cx="315.22" cy="316.05" r="6.21"/>
</g>
<g id="Ebene_3">
</g>
</svg>
