<?xml version="1.0" encoding="utf-8"?>
<!-- Generator: Adobe Illustrator 24.0.0, SVG Export Plug-In . SVG Version: 6.00 Build 0)  -->
<svg version="1.1" xmlns="http://www.w3.org/2000/svg" xmlns:xlink="http://www.w3.org/1999/xlink" x="0px" y="0px"
	 viewBox="0 0 564.4 353.1" style="enable-background:new 0 0 564.4 353.1;" xml:space="preserve">
<style type="text/css">
	.st0{fill:#F9F0E3;}
	.st1{clip-path:url(#SVGID_2_);}
	.st2{fill:#9BCEC6;}
	.st3{fill:#69B6A9;}
	.st4{fill:#058570;}
	.st5{clip-path:url(#SVGID_4_);fill:#69B6A9;}
	.st6{fill:#048570;}
	.st7{fill:#F3F3F3;}
	.st8{fill:#FFFFFF;}
	.st9{fill:#E5816A;}
	.st10{fill:#122E44;}
	.st11{fill:none;}
	.st12{fill:#3FA9F5;}
	.st13{fill:#7AC943;}
	.st14{fill:#B194C7;}
	.st15{fill:#8D62AD;}
	.st16{fill:#C7D5D7;}
	.st17{fill:#376936;}
	.st18{fill:#45424B;}
	.st19{fill:#54A941;}
</style>
<g id="Hintergrund">
	<rect x="0.1" y="0" class="st0" width="564.4" height="353.1"/>
</g>
<g id="linien">
	<g>
		<defs>
			<circle id="SVGID_1_" cx="282.2" cy="124.6" r="215.5"/>
		</defs>
		<clipPath id="SVGID_2_">
			<use xlink:href="#SVGID_1_"  style="overflow:visible;"/>
		</clipPath>
		<g class="st1">
			<path class="st2" d="M17.7,253.2c0,0,97.9-174.2,257-184.6s272,184.6,272,184.6H17.7z"/>
			<path class="st3" d="M172.7,254.2c0,0,86.6-126.3,253.6-124.6c167,1.7,243.4,119.8,243.4,119.8L172.7,254.2z"/>
			<path class="st4" d="M3.1,253.4c0,0,73-101.8,172.2-100.7c99.1,1,152.3,100.7,152.3,100.7H180.5H3.1z"/>
		</g>
	</g>
	<g>
		<defs>
			<circle id="SVGID_3_" cx="282.2" cy="124.6" r="215.5"/>
		</defs>
		<clipPath id="SVGID_4_">
			<use xlink:href="#SVGID_3_"  style="overflow:visible;"/>
		</clipPath>
		<rect x="36.5" y="268.7" class="st5" width="500.1" height="354.8"/>
	</g>
	<rect x="71.2" y="249" class="st0" width="409.7" height="19.8"/>
	<g>
		<g>
			<path class="st6" d="M180.7,277.7c-5.3,4.9-9.4,11.1-11.7,18c-0.3,0.8,1.6,0.6,1.9,0.5c0.7-0.1,2.5-0.5,2.8-1.4
				c2.3-6.7,6.2-12.6,11.4-17.5c0.8-0.8-0.7-0.9-1.2-0.8C182.9,276.5,181.5,276.9,180.7,277.7L180.7,277.7z"/>
		</g>
	</g>
	<g>
		<g>
			<path class="st6" d="M206.5,279c-9.1,7-15.4,17.5-16.8,28.9c-0.1,0.9,1.8,0,2-0.1c0.8-0.4,2.1-1.3,2.2-2.2
				c1.2-10.2,6.5-19.7,14.6-26c0.4-0.3,1.6-1.4,0.8-1.8C208.6,277.3,206.9,278.7,206.5,279L206.5,279z"/>
		</g>
	</g>
	<g>
		<g>
			<path class="st6" d="M228.8,281.1c-9.6,9.1-16.1,21.2-18.4,34.2c0,0,4.9,0.5,5-0.3c2.3-13,8.8-25.1,18.4-34.2
				c0.1-0.1-0.9-0.2-0.7-0.2c-0.6,0-1.2,0-1.8,0C230.6,280.7,229.3,280.6,228.8,281.1L228.8,281.1z"/>
		</g>
	</g>
	<g>
		<g>
			<path class="st6" d="M260.9,279.5c-9.4,11.2-15.8,24.9-18.5,39.3c-0.5,2.9,4.4,3.6,4.9,1c2.6-14.1,8.8-27.3,18-38.3
				c0.8-1,0-2.4-1-2.9C263,278,261.7,278.5,260.9,279.5L260.9,279.5z"/>
		</g>
	</g>
	<g>
		<g>
			<path class="st6" d="M288.7,277.8c-9.5,14.3-16,30.5-19,47.4c-0.2,1.2,0.5,2.5,1.4,3.2c0.7,0.5,2.1,0.8,2.3-0.4
				c2.9-16.6,9.3-32.5,18.7-46.5C293.2,279.7,290,275.9,288.7,277.8L288.7,277.8z"/>
		</g>
	</g>
	<g>
		<g>
			<path class="st6" d="M318.5,282c-12.2,12.2-19.8,28.8-21.1,46c-0.2,2.7,4.6,4,4.8,1.1c1.2-16.5,8.4-32.3,20.1-44
				C324.4,283.1,320.4,280.1,318.5,282L318.5,282z"/>
		</g>
	</g>
	<g>
		<g>
			<path class="st6" d="M344.8,284.5c-7.5,11.6-11.7,25.2-12,39.1c0,0.9,0.9,2,1.5,2.7c0.1,0.2,1.5,1.6,1.5,1
				c0.3-13.7,4.4-27.2,11.8-38.8C348.4,287.6,344.9,284.3,344.8,284.5L344.8,284.5z"/>
		</g>
	</g>
	<g>
		<g>
			<path class="st6" d="M371.2,286c-5,9.4-9.2,19.2-12.3,29.3c-0.3,1.1,4.4,0.6,4.8-0.7c3.2-10.1,7.3-20,12.3-29.3
				c0.4-0.8-1.7-0.6-1.9-0.6C373.2,284.9,371.7,285.2,371.2,286L371.2,286z"/>
		</g>
	</g>
</g>
<g id="Wolken">
	<g>
		<ellipse class="st7" cx="346.4" cy="31.9" rx="18.3" ry="12"/>
		<circle class="st7" cx="368.1" cy="37.8" r="10.5"/>
		<ellipse class="st7" cx="349.6" cy="41.7" rx="11.9" ry="9.7"/>
		<ellipse class="st8" cx="345.6" cy="30.8" rx="18.3" ry="12"/>
		<circle class="st8" cx="367.2" cy="36.7" r="10.5"/>
		<ellipse class="st8" cx="348.7" cy="40.6" rx="11.9" ry="9.7"/>
		<ellipse class="st8" cx="332.7" cy="36.7" rx="16.1" ry="10"/>
		<ellipse transform="matrix(0.9746 -0.2241 0.2241 0.9746 3.0472 77.0735)" class="st7" cx="341.1" cy="25.1" rx="5.6" ry="1.6"/>
	</g>
	<ellipse class="st8" cx="112.1" cy="18" rx="16.1" ry="10.4"/>
	<ellipse class="st7" cx="129.7" cy="29.2" rx="10.1" ry="7.8"/>
	<ellipse class="st7" cx="117.8" cy="34.4" rx="7.7" ry="5.5"/>
	<ellipse class="st8" cx="129.1" cy="28.5" rx="10.1" ry="7.8"/>
	<ellipse class="st8" cx="101.5" cy="27" rx="13.4" ry="7.8"/>
	<ellipse class="st8" cx="117.1" cy="33.8" rx="7.7" ry="5.5"/>
	<ellipse transform="matrix(0.9859 -0.1675 0.1675 0.9859 -0.475 18.3395)" class="st7" cx="108.5" cy="12" rx="4.3" ry="1.5"/>
	<ellipse class="st8" cx="116.9" cy="27.8" rx="5.6" ry="3.1"/>
	<g>
		<ellipse class="st8" cx="507.9" cy="20.2" rx="19.9" ry="11.7"/>
		<ellipse class="st8" cx="484.3" cy="39.3" rx="26.4" ry="15.5"/>
		<ellipse class="st7" cx="513.6" cy="47.2" rx="25.2" ry="15.8"/>
		<ellipse class="st7" cx="524" cy="35.1" rx="19.7" ry="7.6"/>
		<ellipse class="st8" cx="512.6" cy="46.1" rx="25.2" ry="15.8"/>
		<ellipse class="st8" cx="522.9" cy="34.1" rx="19.7" ry="7.6"/>
		<ellipse transform="matrix(0.9698 -0.244 0.244 0.9698 11.5324 123.1487)" class="st7" cx="502.9" cy="15" rx="8.6" ry="2.7"/>
	</g>
</g>
<g id="Stahl">
	<g>
		<polyline class="st9" points="228.5,61.4 260.1,73.4 273.4,95.6 273.4,144.1 183.6,144.1 183.6,95.6 196.7,73.4 228.5,61.4 		"/>
		<g>
			<polygon class="st10" points="274.6,98 260.6,74.7 228.4,62.5 196.2,74.7 182.3,98 174.6,93.4 190.1,67.4 228.5,52.9 266.7,67.4 
				282.4,93.4 			"/>
		</g>
		
			<ellipse transform="matrix(0.7071 -0.7071 0.7071 0.7071 3.8236 187.7046)" class="st10" cx="228.5" cy="89.2" rx="9.9" ry="9.9"/>
		<g>
			<polygon class="st8" points="225.4,128.2 212.4,115.4 212.4,141 			"/>
			<polygon class="st8" points="241.1,112.5 214.6,112.5 227.9,125.6 			"/>
			<polygon class="st8" points="227.9,130.5 214.3,143.8 241.5,143.8 			"/>
			<polygon class="st8" points="230.4,128.2 243.7,141.3 243.7,115.1 			"/>
		</g>
	</g>
	<path class="st11" d="M575.5,287.1"/>
	<path class="st12" d="M575.5,287.1"/>
	<path class="st11" d="M692,225.3"/>
	<path class="st13" d="M692,225.3"/>
	<path class="st14" d="M754.9,343.8"/>
	<path class="st15" d="M754.9,343.8"/>
</g>
<g id="traktor">
	<g>
		<g>
			<g>
				<path class="st10" d="M353.5,200.3c0,7,5.7,12.7,12.7,12.7c7,0,12.7-5.7,12.7-12.7c0-7-5.7-12.7-12.7-12.7
					C359.2,187.6,353.5,193.3,353.5,200.3z"/>
				<path class="st16" d="M366.2,208.4c4.5,0,8.1-3.6,8.1-8.1c0-4.5-3.6-8.1-8.1-8.1c-4.5,0-8.1,3.6-8.1,8.1
					C358.1,204.8,361.8,208.4,366.2,208.4z"/>
				<path class="st10" d="M333.2,205.1c0,4.3,3.5,7.7,7.7,7.7s7.7-3.5,7.7-7.7c0-4.3-3.5-7.7-7.7-7.7S333.2,200.8,333.2,205.1z"/>
				<path class="st16" d="M341,208.2c1.7,0,3.1-1.4,3.1-3.1c0-1.7-1.4-3.1-3.1-3.1s-3.1,1.4-3.1,3.1
					C337.9,206.8,339.3,208.2,341,208.2z"/>
				<path class="st9" d="M349.4,172.3v9.9h28.8v-9.9c0-4.5-4.3-7.3-8.8-7.3h-12.3C352.6,165,349.4,167.7,349.4,172.3z M353.6,172.8
					c0-3.2,2.2-5,5.4-5h8.7c3.2,0,6.3,1.8,6.3,5v8.1h-20.5V172.8z"/>
				<path class="st9" d="M338,179.4h34.8c4.5,0,8.2,3.6,8.2,8.1v6.1c0,1-0.2,1.9-0.5,2.8c-1.7-6.3-7.5-11-14.3-11
					c-8.2,0-14.8,6.6-14.8,14.7c0,0.5,0,1.1,0.1,1.5h-1.3c-1.3-3.7-5-6.5-9.2-6.5c-3.5,0-6.5,1.9-8.3,4.7c-1.7-1.5-2.8-3.7-2.8-6.2
					v-6.1C329.9,183,333.5,179.4,338,179.4z"/>
				<rect x="340.1" y="170.6" class="st9" width="4.2" height="10.2"/>
			</g>
			<rect x="328.5" y="184.1" class="st9" width="2.3" height="5.6"/>
		</g>
	</g>
</g>
<g id="Bäume">
	<g>
		<path class="st17" d="M82.6,151.8c-1.9-2.3,2.1-8.5,9.9-20.6c9.9-15.3,12.6-15.9,14-15.9c1.9,0,4.2,0.9,14.3,15.4
			c8.6,12.5,12.9,18.8,11.2,21c-1,1.3-4.1,1.9-14.7-2.7c3.5,3.1,8.5,7.8,13.6,14.3c4.5,5.7,12.9,17.4,10.7,19.7
			c-0.9,0.9-4.6-0.6-12.1-3.6c-3.1-1.2-5.6-2.4-7.2-3.1c3.4,3.1,8.4,8.1,13.4,15c2.8,3.8,14.5,20,11,24.1c-1.9,2.3-8.9-0.3-22.8-5.4
			c-6.2-2.3-11.2-4.4-14.5-5.8c-3.6,1.8-9.1,4.5-15.8,7.6c-15.2,7.1-17.5,7.3-18.6,6.3c-3-2.8,2.4-13.9,6.6-22.3
			c3.6-7.4,7.3-13.1,9.9-16.8c-2.7,1.2-6.3,2.7-10.7,4c-5.3,1.6-7.9,2.3-8.8,1.3C69.8,182,77.6,172,83,165
			c5.3-6.8,10.2-12.3,13.8-16.1C86.5,153.7,83.6,153,82.6,151.8z"/>
		<polygon class="st18" points="106.6,115.6 116.7,230.9 101.1,231.1 		"/>
	</g>
	<g>
		<path class="st17" d="M145.2,159.1c-2.1-2.5,2.3-9.4,10.8-22.6c10.9-16.8,13.9-17.4,15.4-17.4c2.1,0,4.6,1,15.6,16.9
			c9.5,13.7,14.2,20.6,12.3,23.1c-1.1,1.4-4.6,2.1-16.1-2.9c3.9,3.4,9.3,8.6,14.9,15.7c4.9,6.2,14.1,19.1,11.8,21.6
			c-1,1-5.1-0.6-13.2-3.9c-3.4-1.4-6.1-2.6-7.9-3.4c3.7,3.4,9.2,8.9,14.7,16.4c3.1,4.2,16,21.9,12,26.5c-2.1,2.5-9.8-0.3-25-5.9
			c-6.8-2.5-12.3-4.8-15.9-6.4c-4,2-10,4.9-17.3,8.3c-16.7,7.7-19.2,8-20.5,6.9c-3.3-3.1,2.7-15.3,7.2-24.5c4-8.1,8-14.4,10.8-18.4
			c-3,1.4-6.9,3-11.8,4.4c-5.8,1.7-8.7,2.6-9.6,1.5c-2.2-2.6,6.3-13.6,12.3-21.3c5.8-7.5,11.2-13.4,15.2-17.7
			C149.4,161.3,146.2,160.4,145.2,159.1z"/>
		<polygon class="st18" points="171.5,119.4 182.6,245.9 165.5,246.2 		"/>
	</g>
	<g>
		<path class="st17" d="M140.6,104.9c-0.6-0.8,0.7-2.9,3.4-7c3.4-5.2,4.3-5.4,4.8-5.4c0.7,0,1.4,0.3,4.9,5.3
			c2.9,4.3,4.4,6.4,3.8,7.2c-0.3,0.4-1.4,0.6-5-0.9c1.2,1.1,2.9,2.7,4.6,4.9c1.5,1.9,4.4,5.9,3.7,6.7c-0.3,0.3-1.6-0.2-4.1-1.2
			c-1-0.4-1.9-0.8-2.5-1.1c1.2,1.1,2.9,2.8,4.6,5.1c0.9,1.3,5,6.8,3.7,8.2c-0.7,0.8-3-0.1-7.8-1.8c-2.1-0.8-3.8-1.5-4.9-2
			c-1.2,0.6-3.1,1.5-5.4,2.6c-5.2,2.4-6,2.5-6.4,2.1c-1-1,0.8-4.7,2.2-7.6c1.2-2.5,2.5-4.5,3.4-5.7c-0.9,0.4-2.2,0.9-3.7,1.4
			c-1.8,0.5-2.7,0.8-3,0.5c-0.7-0.8,2-4.2,3.8-6.6c1.8-2.3,3.5-4.2,4.7-5.5C142,105.6,141,105.3,140.6,104.9z"/>
		<polygon class="st18" points="148.8,92.6 152.3,131.9 147,131.9 		"/>
	</g>
	<g>
		<path class="st19" d="M443.9,134.2c7.9-0.4,16.9,18.8,17.2,35.8c0.3,15.6-6.6,34.3-14.4,34.6c-7.8,0.3-16-18.3-16.8-34.2
			C429.2,154.1,436.1,134.6,443.9,134.2z"/>
		<g>
			<polygon class="st18" points="442.1,227.4 449.6,227.2 447.6,168.4 444.1,168.6 			"/>
			<polygon class="st18" points="444.7,169.5 454.4,156.5 446.9,175 			"/>
			<polygon class="st18" points="444.4,174.5 437.7,157.4 446.1,169.4 			"/>
			<path class="st18" d="M446,178.7c0.3-0.2,12.7-15.1,12.7-15.1l-11.4,20.8h-2.7l-12.4-16.8L446,178.7z"/>
			<polygon class="st18" points="445.7,190.1 457.9,178.3 445.4,196.8 434.6,181.6 			"/>
		</g>
	</g>
	<g>
		<path class="st19" d="M306.6,128.2c4.1-0.2,8.8,9.8,9,18.7c0.2,8.2-3.5,17.9-7.5,18.1c-4.1,0.1-8.4-9.5-8.8-17.9
			C298.9,138.6,302.5,128.4,306.6,128.2z"/>
		<g>
			<polygon class="st18" points="305.7,177 309.6,176.9 308.5,146.1 306.7,146.2 			"/>
			<polygon class="st18" points="307,146.7 312.1,139.9 308.1,149.6 			"/>
			<polygon class="st18" points="306.8,149.3 303.3,140.4 307.7,146.6 			"/>
			<path class="st18" d="M307.7,151.5c0.2-0.1,6.6-7.9,6.6-7.9l-6,10.9h-1.4l-6.5-8.8L307.7,151.5z"/>
			<polygon class="st18" points="307.5,157.4 313.9,151.3 307.4,161 301.7,153 			"/>
		</g>
	</g>
	<g>
		<path class="st19" d="M300.8,63.7c2-0.1,4.3,4.8,4.4,9.2c0.1,4-1.7,8.8-3.7,8.9c-2,0.1-4.1-4.7-4.3-8.8
			C297.1,68.8,298.8,63.8,300.8,63.7z"/>
		<g>
			<polygon class="st18" points="300.4,87.6 302.3,87.5 301.8,72.5 300.9,72.5 			"/>
			<polygon class="st18" points="301,72.8 303.5,69.4 301.6,74.2 			"/>
			<polygon class="st18" points="301,74 299.2,69.7 301.4,72.7 			"/>
			<path class="st18" d="M301.4,75.1c0.1-0.1,3.2-3.9,3.2-3.9l-2.9,5.3H301l-3.2-4.3L301.4,75.1z"/>
			<polygon class="st18" points="301.3,78 304.4,75 301.2,79.8 298.5,75.9 			"/>
		</g>
	</g>
	<g>
		<path class="st19" d="M323.4,78.5c2.4-0.1,5.1,5.7,5.2,10.8c0.1,4.7-2,10.4-4.4,10.5c-2.4,0.1-4.9-5.5-5.1-10.4
			C319,84.5,321.1,78.6,323.4,78.5z"/>
		<g>
			<polygon class="st18" points="322.9,106.7 325.2,106.6 324.5,88.8 323.5,88.9 			"/>
			<polygon class="st18" points="323.7,89.2 326.6,85.2 324.3,90.8 			"/>
			<polygon class="st18" points="323.6,90.7 321.6,85.5 324.1,89.1 			"/>
			<path class="st18" d="M324.1,91.9c0.1-0.1,3.8-4.6,3.8-4.6l-3.4,6.3h-0.8l-3.7-5.1L324.1,91.9z"/>
			<polygon class="st18" points="324,95.4 327.7,91.8 323.9,97.4 320.6,92.8 			"/>
		</g>
	</g>
</g>
</svg>
